# Unity to PyBullet Batch Export
v -0.2707143 -4.793642 1.452011
v -0.2707143 -4.793643 0.0005748182
v -0.2707143 -5.189275 0.0005748355
v -0.2707143 -5.189275 1.452011
v -0.2707143 -4.793642 1.802439
v -0.2707143 -3.929298 1.452011
v -0.2707143 -3.929298 1.802439
v -0.2707143 -3.590569 1.452011
v -0.2707143 -3.590569 1.802439
v -0.2707143 -3.590569 2.19957
v -0.2707143 -3.929298 2.19957
v -0.2707143 -5.189275 1.802439
v -0.2707143 -4.793642 2.166884
v -0.2707143 -5.189275 2.166885
v -0.2707143 -4.793642 2.587398
v -0.2707143 -5.189275 2.587398
v -0.2707143 -6.135381 1.802439
v -0.2707143 -6.135381 1.452012
v -0.2707143 -6.544193 1.80244
v -0.2707143 -6.544193 1.452011
v -0.2707143 -6.135381 2.222931
v -0.2707143 -6.544192 2.222931
v -0.2707143 -5.189275 1.452011
v -0.2707143 -5.189275 0.0005748355
v -0.666347 -5.189275 0.0005748355
v -0.666347 -5.189275 1.452011
v -0.2707143 -5.189275 1.802439
v 0.4885067 -5.189275 1.452011
v 0.4885067 -5.189275 1.802439
v 0.8272367 -5.189275 1.452011
v 0.8272367 -5.189275 1.802439
v 0.8272367 -5.189275 2.222931
v 0.4885067 -5.189275 2.222931
v -0.666347 -5.189275 1.802439
v -0.2707143 -5.189275 2.166885
v -0.666347 -5.189275 2.166885
v -0.2707143 -5.189275 2.587398
v -1.624133 -5.189275 2.166885
v -0.666347 -5.189275 2.587398
v -1.624133 -5.189275 1.802439
v -0.2707143 -5.189275 2.96586
v -0.666347 -5.189275 2.96586
v 0.2782607 -5.189275 2.587398
v -0.2707143 -5.189275 3.498511
v -0.666347 -5.189275 3.498511
v 0.2782607 -5.189275 2.96586
v 0.6753917 -5.189275 2.587398
v 0.6753917 -5.189275 2.96586
v 0.6753917 -5.189275 3.351311
v 0.2782607 -5.189275 3.351311
v -2.021265 -5.189275 2.166885
v -2.021265 -5.189275 1.802439
v -1.624133 -5.189275 2.692499
v -2.021265 -5.189275 2.692499
v -0.666347 -5.189275 1.452011
v -0.666347 -5.189275 0.0005748355
v -0.666347 -4.793643 0.0005748182
v -0.666347 -4.793642 1.452011
v -0.666347 -5.189275 1.802439
v -0.666347 -6.135381 1.452012
v -0.666347 -4.793642 1.802439
v -0.666347 -6.135381 1.802439
v -0.666347 -3.929298 1.802439
v -0.666347 -6.544193 1.452011
v -0.666347 -6.544193 1.80244
v -0.666347 -6.544192 2.222931
v -0.666347 -6.135381 2.222931
v -0.666347 -3.929298 1.452011
v -0.666347 -3.590569 1.802439
v -0.666347 -3.590569 1.452011
v -0.666347 -3.929298 2.19957
v -0.666347 -3.590569 2.19957
v -0.666347 -4.793642 1.452011
v -0.666347 -4.793643 0.0005748182
v -0.2707143 -4.793643 0.0005748182
v -0.2707143 -4.793642 1.452011
v 0.4885067 -4.793642 1.452011
v 0.4885067 -4.793642 1.802439
v -0.2707143 -4.793642 1.802439
v 0.8272367 -4.793642 1.802439
v 0.8272367 -4.793642 1.452011
v 0.4885067 -4.793642 2.222931
v 0.8272367 -4.793642 2.222931
v -0.666347 -4.793642 2.166884
v -0.666347 -4.793642 1.802439
v -0.2707143 -4.793642 2.166884
v -1.624133 -4.793642 1.802439
v -0.666347 -4.793642 2.587398
v -1.624133 -4.793642 2.166884
v -0.2707143 -4.793642 2.587398
v -2.021265 -4.793642 1.802439
v -2.021265 -4.793642 2.166884
v -2.021265 -4.793642 2.692499
v -1.624133 -4.793642 2.692499
v -0.666347 -4.793642 2.96586
v -0.2707143 -4.793642 2.96586
v -0.666347 -4.793642 3.498511
v -0.2707143 -4.793642 3.498511
v 0.2782607 -4.793642 2.96586
v 0.2782607 -4.793642 2.587398
v 0.6753917 -4.793642 2.96586
v 0.6753917 -4.793642 2.587398
v 0.2782607 -4.793642 3.351311
v 0.6753917 -4.793642 3.351311
v -0.2707143 -4.793643 0.0005748182
v -0.666347 -4.793643 0.0005748182
v -0.666347 -5.189275 0.0005748355
v -0.2707143 -5.189275 0.0005748355
v -0.666347 -4.793642 2.166884
v -0.666347 -5.189275 2.587398
v -0.666347 -5.189275 2.166885
v -0.666347 -4.793642 2.587398
v -0.666347 -5.189275 2.96586
v -0.666347 -4.793642 2.96586
v -0.666347 -5.189275 3.498511
v -0.666347 -4.793642 3.498511
v -0.666347 -4.793642 3.498511
v -0.2707143 -4.793642 3.498511
v -0.2707143 -5.189275 3.498511
v -0.666347 -5.189275 3.498511
v -0.2707143 -5.189275 2.96586
v -0.2707143 -5.189275 3.498511
v -0.2707143 -4.793642 3.498511
v -0.2707143 -4.793642 2.96586
v -0.666347 -4.793642 1.802439
v -0.666347 -3.929298 1.802439
v -0.2707143 -3.929298 1.802439
v -0.2707143 -4.793642 1.802439
v 0.4885067 -4.793642 1.802439
v 0.4885067 -5.189275 1.802439
v -0.2707143 -5.189275 1.802439
v -0.2707143 -6.135381 1.802439
v -0.666347 -6.135381 1.802439
v -0.666347 -5.189275 1.802439
v -0.2707143 -4.793642 1.452011
v -0.666347 -3.929298 1.452011
v -0.666347 -4.793642 1.452011
v -0.2707143 -3.929298 1.452011
v -0.666347 -3.590569 1.452011
v -0.2707143 -3.590569 1.452011
v -0.2707143 -5.189275 1.452011
v 0.4885067 -4.793642 1.452011
v 0.4885067 -5.189275 1.452011
v 0.8272367 -4.793642 1.452011
v 0.8272367 -5.189275 1.452011
v -0.666347 -5.189275 1.452011
v -0.2707143 -6.135381 1.452012
v -0.666347 -6.135381 1.452012
v -0.2707143 -6.544193 1.452011
v -0.666347 -6.544193 1.452011
v -0.2707143 -3.590569 1.452011
v -0.666347 -3.590569 1.802439
v -0.666347 -3.590569 1.452011
v -0.2707143 -3.590569 1.802439
v -0.666347 -3.590569 2.19957
v -0.2707143 -3.590569 2.19957
v -0.666347 -3.929298 2.19957
v -0.666347 -3.590569 2.19957
v -0.2707143 -3.590569 2.19957
v -0.2707143 -3.929298 2.19957
v -0.666347 -3.929298 1.802439
v -0.666347 -3.929298 2.19957
v -0.2707143 -3.929298 2.19957
v -0.2707143 -3.929298 1.802439
v -0.666347 -5.189275 2.166885
v -1.624133 -5.189275 2.166885
v -1.624133 -4.793642 2.166884
v -0.666347 -4.793642 2.166884
v -0.666347 -4.793642 1.802439
v -1.624133 -5.189275 1.802439
v -0.666347 -5.189275 1.802439
v -1.624133 -4.793642 1.802439
v -2.021265 -5.189275 1.802439
v -2.021265 -4.793642 1.802439
v -2.021265 -4.793642 1.802439
v -2.021265 -5.189275 2.166885
v -2.021265 -5.189275 1.802439
v -2.021265 -4.793642 2.166884
v -2.021265 -5.189275 2.692499
v -2.021265 -4.793642 2.692499
v -1.624133 -5.189275 2.692499
v -2.021265 -5.189275 2.692499
v -2.021265 -4.793642 2.692499
v -1.624133 -4.793642 2.692499
v -1.624133 -5.189275 2.166885
v -1.624133 -5.189275 2.692499
v -1.624133 -4.793642 2.692499
v -1.624133 -4.793642 2.166884
v -0.666347 -6.544193 1.452011
v -0.2707143 -6.544193 1.80244
v -0.2707143 -6.544193 1.452011
v -0.666347 -6.544193 1.80244
v -0.2707143 -6.544192 2.222931
v -0.666347 -6.544192 2.222931
v -0.2707143 -6.135381 2.222931
v -0.2707143 -6.544192 2.222931
v -0.666347 -6.544192 2.222931
v -0.666347 -6.135381 2.222931
v -0.2707143 -6.135381 1.802439
v -0.2707143 -6.135381 2.222931
v -0.666347 -6.135381 2.222931
v -0.666347 -6.135381 1.802439
v 0.8272367 -5.189275 1.452011
v 0.8272367 -4.793642 1.802439
v 0.8272367 -4.793642 1.452011
v 0.8272367 -5.189275 1.802439
v 0.8272367 -4.793642 2.222931
v 0.8272367 -5.189275 2.222931
v 0.4885067 -4.793642 2.222931
v 0.8272367 -4.793642 2.222931
v 0.8272367 -5.189275 2.222931
v 0.4885067 -5.189275 2.222931
v 0.4885067 -4.793642 1.802439
v 0.4885067 -4.793642 2.222931
v 0.4885067 -5.189275 2.222931
v 0.4885067 -5.189275 1.802439
v -0.2707143 -4.793642 2.96586
v 0.2782607 -4.793642 2.96586
v 0.2782607 -5.189275 2.96586
v -0.2707143 -5.189275 2.96586
v -0.2707143 -5.189275 2.587398
v 0.2782607 -4.793642 2.587398
v -0.2707143 -4.793642 2.587398
v 0.2782607 -5.189275 2.587398
v 0.6753917 -4.793642 2.587398
v 0.6753917 -5.189275 2.587398
v 0.6753917 -5.189275 2.587398
v 0.6753917 -4.793642 2.96586
v 0.6753917 -4.793642 2.587398
v 0.6753917 -5.189275 2.96586
v 0.6753917 -4.793642 3.351311
v 0.6753917 -5.189275 3.351311
v 0.2782607 -4.793642 3.351311
v 0.6753917 -4.793642 3.351311
v 0.6753917 -5.189275 3.351311
v 0.2782607 -5.189275 3.351311
v 0.2782607 -4.793642 2.96586
v 0.2782607 -4.793642 3.351311
v 0.2782607 -5.189275 3.351311
v 0.2782607 -5.189275 2.96586
v 0.00912872 -3.382744 3.070073
v 0.00912872 -3.382744 2.054523
v 0.00912872 -4.398294 2.054523
v 0.00912872 -4.398294 3.070073
v 0.00912872 -4.398294 3.070073
v 0.00912872 -4.398294 2.054523
v -1.006421 -4.398294 2.054523
v -1.006421 -4.398294 3.070073
v -1.006421 -4.398294 3.070073
v -1.006421 -4.398294 2.054523
v -1.006421 -3.382744 2.054523
v -1.006421 -3.382744 3.070073
v -1.006421 -3.382744 3.070073
v -1.006421 -3.382744 2.054523
v 0.00912872 -3.382744 2.054523
v 0.00912872 -3.382744 3.070073
v 0.00912872 -3.382744 2.054523
v -1.006421 -3.382744 2.054523
v -1.006421 -4.398294 2.054523
v 0.00912872 -4.398294 2.054523
v -1.006421 -3.382744 3.070073
v 0.00912872 -3.382744 3.070073
v 0.00912872 -4.398294 3.070073
v -1.006421 -4.398294 3.070073
v 0.00912872 -5.561267 3.070074
v 0.00912872 -5.561267 2.054523
v 0.00912872 -6.576818 2.054523
v 0.00912872 -6.576818 3.070074
v 0.00912872 -6.576818 3.070074
v 0.00912872 -6.576818 2.054523
v -1.006421 -6.576818 2.054523
v -1.006421 -6.576817 3.070074
v -1.006421 -6.576817 3.070074
v -1.006421 -6.576818 2.054523
v -1.006421 -5.561267 2.054523
v -1.006421 -5.561267 3.070074
v -1.006421 -5.561267 3.070074
v -1.006421 -5.561267 2.054523
v 0.00912872 -5.561267 2.054523
v 0.00912872 -5.561267 3.070074
v 0.00912872 -5.561267 2.054523
v -1.006421 -5.561267 2.054523
v -1.006421 -6.576818 2.054523
v 0.00912872 -6.576818 2.054523
v -1.006421 -5.561267 3.070074
v 0.00912872 -5.561267 3.070074
v 0.00912872 -6.576818 3.070074
v -1.006421 -6.576817 3.070074
v -0.1241516 -4.630538 4.02821
v -0.1241516 -4.630538 3.306366
v -0.1241516 -5.352383 3.306366
v -0.1241516 -5.352382 4.02821
v -0.1241516 -5.352382 4.02821
v -0.1241516 -5.352383 3.306366
v -0.8459959 -5.352382 3.306366
v -0.8459959 -5.352382 4.02821
v -0.8459959 -5.352382 4.02821
v -0.8459959 -5.352382 3.306366
v -0.8459959 -4.630538 3.306366
v -0.8459959 -4.630538 4.02821
v -0.8459959 -4.630538 4.02821
v -0.8459959 -4.630538 3.306366
v -0.1241516 -4.630538 3.306366
v -0.1241516 -4.630538 4.02821
v -0.1241516 -4.630538 3.306366
v -0.8459959 -4.630538 3.306366
v -0.8459959 -5.352382 3.306366
v -0.1241516 -5.352383 3.306366
v -0.8459959 -4.630538 4.02821
v -0.1241516 -4.630538 4.02821
v -0.1241516 -5.352382 4.02821
v -0.8459959 -5.352382 4.02821
v 1.096159 -4.478177 3.573667
v 1.096159 -4.478177 2.5471
v 1.096159 -5.504744 2.5471
v 1.096159 -5.504744 3.573667
v 1.096159 -5.504744 3.573667
v 1.096159 -5.504744 2.5471
v 0.06959194 -5.504744 2.5471
v 0.06959194 -5.504744 3.573667
v 0.06959194 -5.504744 3.573667
v 0.06959194 -5.504744 2.5471
v 0.06959194 -4.478177 2.5471
v 0.06959194 -4.478177 3.573667
v 0.06959194 -4.478177 3.573667
v 0.06959194 -4.478177 2.5471
v 1.096159 -4.478177 2.5471
v 1.096159 -4.478177 3.573667
v 1.096159 -4.478177 2.5471
v 0.06959194 -4.478177 2.5471
v 0.06959194 -5.504744 2.5471
v 1.096159 -5.504744 2.5471
v 0.06959194 -4.478177 3.573667
v 1.096159 -4.478177 3.573667
v 1.096159 -5.504744 3.573667
v 0.06959194 -5.504744 3.573667
v -1.363658 -4.524969 3.315925
v -1.363658 -4.524969 2.382942
v -1.363658 -5.457952 2.382942
v -1.363658 -5.457952 3.315925
v -1.363658 -5.457952 3.315925
v -1.363658 -5.457952 2.382942
v -2.296641 -5.457952 2.382942
v -2.296641 -5.457952 3.315925
v -2.296641 -5.457952 3.315925
v -2.296641 -5.457952 2.382942
v -2.296641 -4.524969 2.382942
v -2.296641 -4.524968 3.315925
v -2.296641 -4.524968 3.315925
v -2.296641 -4.524969 2.382942
v -1.363658 -4.524969 2.382942
v -1.363658 -4.524969 3.315925
v -1.363658 -4.524969 2.382942
v -2.296641 -4.524969 2.382942
v -2.296641 -5.457952 2.382942
v -1.363658 -5.457952 2.382942
v -2.296641 -4.524968 3.315925
v -1.363658 -4.524969 3.315925
v -1.363658 -5.457952 3.315925
v -2.296641 -5.457952 3.315925
v 1.008511 -4.68749 2.538314
v 1.008511 -4.68749 1.930372
v 1.008511 -5.295431 1.930372
v 1.008511 -5.295431 2.538314
v 1.008511 -5.295431 2.538314
v 1.008511 -5.295431 1.930372
v 0.4005703 -5.295431 1.930372
v 0.4005703 -5.295431 2.538314
v 0.4005703 -5.295431 2.538314
v 0.4005703 -5.295431 1.930372
v 0.4005703 -4.68749 1.930372
v 0.4005703 -4.68749 2.538314
v 0.4005703 -4.68749 2.538314
v 0.4005703 -4.68749 1.930372
v 1.008511 -4.68749 1.930372
v 1.008511 -4.68749 2.538314
v 1.008511 -4.68749 1.930372
v 0.4005703 -4.68749 1.930372
v 0.4005703 -5.295431 1.930372
v 1.008511 -5.295431 1.930372
v 0.4005703 -4.68749 2.538314
v 1.008511 -4.68749 2.538314
v 1.008511 -5.295431 2.538314
v 0.4005703 -5.295431 2.538314
f 3 2 1
f 4 3 1
f 1 6 5
f 6 7 5
f 6 8 7
f 8 9 7
f 9 10 7
f 10 11 7
f 5 13 12
f 13 14 12
f 13 15 14
f 15 16 14
f 12 17 4
f 17 18 4
f 17 19 18
f 19 20 18
f 17 21 19
f 21 22 19
f 25 24 23
f 26 25 23
f 23 28 27
f 28 29 27
f 28 30 29
f 30 31 29
f 31 32 29
f 32 33 29
f 27 35 34
f 35 36 34
f 35 37 36
f 36 38 34
f 37 39 36
f 38 40 34
f 37 41 39
f 41 42 39
f 37 43 41
f 41 44 42
f 44 45 42
f 43 46 41
f 43 47 46
f 47 48 46
f 48 49 46
f 49 50 46
f 38 51 40
f 51 52 40
f 38 53 51
f 53 54 51
f 57 56 55
f 58 57 55
f 55 59 58
f 55 60 59
f 59 61 58
f 60 62 59
f 61 63 58
f 60 64 62
f 64 65 62
f 65 66 62
f 66 67 62
f 63 68 58
f 63 69 68
f 69 70 68
f 63 71 69
f 71 72 69
f 75 74 73
f 76 75 73
f 78 77 76
f 79 78 76
f 78 80 77
f 80 81 77
f 78 82 80
f 82 83 80
f 85 84 79
f 84 86 79
f 85 87 84
f 84 88 86
f 87 89 84
f 88 90 86
f 87 91 89
f 91 92 89
f 92 93 89
f 93 94 89
f 88 95 90
f 95 96 90
f 95 97 96
f 97 98 96
f 96 99 90
f 99 100 90
f 99 101 100
f 101 102 100
f 99 103 101
f 103 104 101
f 107 106 105
f 108 107 105
f 111 110 109
f 110 112 109
f 110 113 112
f 113 114 112
f 113 115 114
f 115 116 114
f 119 118 117
f 120 119 117
f 123 122 121
f 124 123 121
f 127 126 125
f 128 127 125
f 130 129 128
f 131 130 128
f 133 132 131
f 134 133 131
f 137 136 135
f 136 138 135
f 136 139 138
f 139 140 138
f 135 142 141
f 142 143 141
f 142 144 143
f 144 145 143
f 141 147 146
f 147 148 146
f 147 149 148
f 149 150 148
f 153 152 151
f 152 154 151
f 152 155 154
f 155 156 154
f 159 158 157
f 160 159 157
f 163 162 161
f 164 163 161
f 167 166 165
f 168 167 165
f 171 170 169
f 170 172 169
f 170 173 172
f 173 174 172
f 177 176 175
f 176 178 175
f 176 179 178
f 179 180 178
f 183 182 181
f 184 183 181
f 187 186 185
f 188 187 185
f 191 190 189
f 190 192 189
f 190 193 192
f 193 194 192
f 197 196 195
f 198 197 195
f 201 200 199
f 202 201 199
f 205 204 203
f 204 206 203
f 204 207 206
f 207 208 206
f 211 210 209
f 212 211 209
f 215 214 213
f 216 215 213
f 219 218 217
f 220 219 217
f 223 222 221
f 222 224 221
f 222 225 224
f 225 226 224
f 229 228 227
f 228 230 227
f 228 231 230
f 231 232 230
f 235 234 233
f 236 235 233
f 239 238 237
f 240 239 237
f 243 242 241
f 244 243 241
f 247 246 245
f 248 247 245
f 251 250 249
f 252 251 249
f 255 254 253
f 256 255 253
f 259 258 257
f 260 259 257
f 263 262 261
f 264 263 261
f 267 266 265
f 268 267 265
f 271 270 269
f 272 271 269
f 275 274 273
f 276 275 273
f 279 278 277
f 280 279 277
f 283 282 281
f 284 283 281
f 287 286 285
f 288 287 285
f 291 290 289
f 292 291 289
f 295 294 293
f 296 295 293
f 299 298 297
f 300 299 297
f 303 302 301
f 304 303 301
f 307 306 305
f 308 307 305
f 311 310 309
f 312 311 309
f 315 314 313
f 316 315 313
f 319 318 317
f 320 319 317
f 323 322 321
f 324 323 321
f 327 326 325
f 328 327 325
f 331 330 329
f 332 331 329
f 335 334 333
f 336 335 333
f 339 338 337
f 340 339 337
f 343 342 341
f 344 343 341
f 347 346 345
f 348 347 345
f 351 350 349
f 352 351 349
f 355 354 353
f 356 355 353
f 359 358 357
f 360 359 357
f 363 362 361
f 364 363 361
f 367 366 365
f 368 367 365
f 371 370 369
f 372 371 369
f 375 374 373
f 376 375 373
f 379 378 377
f 380 379 377
f 383 382 381
f 384 383 381
