# Unity to PyBullet Batch Export
v 2.758197 6.488298 4.680239
v 2.359257 5.248328 4.67669
v 3.224664 6.070304 4.028048
v 3.304735 5.245853 3.954735
v 4.237322 5.817822 4.311994
v 3.224664 6.070304 4.028048
v 2.758197 6.488298 4.680239
v 2.369956 5.960989 5.434283
v 2.359257 5.248328 4.67669
v 3.378599 4.494255 4.691931
v 4.037672 4.712581 5.364615
v 4.352417 5.068889 4.745563
v 2.359257 5.248328 4.67669
v 2.750885 4.721829 5.038437
v 3.378599 4.494255 4.691931
v 4.237322 5.817822 4.311994
v 4.352417 5.068889 4.745563
v 4.401501 5.92102 5.454386
v 4.401501 5.92102 5.454386
v 3.759068 5.63222 6.117993
v 3.915243 6.546641 5.356484
v 4.037672 4.712581 5.364615
v 3.759068 5.63222 6.117993
v 4.401501 5.92102 5.454386
v 2.369956 5.960989 5.434283
v 2.81804 5.597333 5.958998
v 2.886406 4.875069 5.788211
v 2.81804 5.597333 5.958998
v 3.759068 5.63222 6.117993
v 2.886406 4.875069 5.788211
v 2.886406 4.875069 5.788211
v 3.759068 5.63222 6.117993
v 4.037672 4.712581 5.364615
v 3.759068 5.63222 6.117993
v 3.098478 6.386887 5.766896
v 3.915243 6.546641 5.356484
v 3.098478 6.386887 5.766896
v 3.759068 5.63222 6.117993
v 2.81804 5.597333 5.958998
v 3.098478 6.386887 5.766896
v 2.81804 5.597333 5.958998
v 2.369956 5.960989 5.434283
v 2.359257 5.248328 4.67669
v 2.369956 5.960989 5.434283
v 2.886406 4.875069 5.788211
v 2.359257 5.248328 4.67669
v 2.886406 4.875069 5.788211
v 2.750885 4.721829 5.038437
v 3.378599 4.494255 4.691931
v 2.886406 4.875069 5.788211
v 4.037672 4.712581 5.364615
v 4.352417 5.068889 4.745563
v 4.037672 4.712581 5.364615
v 4.401501 5.92102 5.454386
v 3.594625 6.674822 4.793202
v 3.915243 6.546641 5.356484
v 3.098478 6.386887 5.766896
v 2.758197 6.488298 4.680239
v 3.098478 6.386887 5.766896
v 2.369956 5.960989 5.434283
v 2.750885 4.721829 5.038437
v 2.886406 4.875069 5.788211
v 3.378599 4.494255 4.691931
v 4.401501 5.92102 5.454386
v 3.915243 6.546641 5.356484
v 4.237322 5.817822 4.311994
v 4.237322 5.817822 4.311994
v 3.915243 6.546641 5.356484
v 3.594625 6.674822 4.793202
v 3.594625 6.674822 4.793202
v 3.098478 6.386887 5.766896
v 2.758197 6.488298 4.680239
v 3.304735 5.245853 3.954735
v 2.359257 5.248328 4.67669
v 3.378599 4.494255 4.691931
v 3.304735 5.245853 3.954735
v 3.378599 4.494255 4.691931
v 4.352417 5.068889 4.745563
v 3.304735 5.245853 3.954735
v 4.352417 5.068889 4.745563
v 4.237322 5.817822 4.311994
v 3.224664 6.070304 4.028048
v 4.237322 5.817822 4.311994
v 3.594625 6.674822 4.793202
v 2.359257 5.248328 4.67669
v 3.304735 5.245853 3.954735
v 3.224664 6.070304 4.028048
v 3.224664 6.070304 4.028048
v 3.594625 6.674822 4.793202
v 2.758197 6.488298 4.680239
v 3.305172 6.166472 3.045382
v 3.452272 7.392223 3.352307
v 2.720481 7.015363 3.366616
v 3.305172 6.166472 3.045382
v 4.153519 6.862902 3.371794
v 3.452272 7.392223 3.352307
v 2.720481 7.015363 3.366616
v 2.453231 7.149234 4.067545
v 2.344449 6.185693 3.798761
v 4.442229 6.344398 3.82686
v 4.316323 7.197119 4.257959
v 4.153519 6.862902 3.371794
v 2.344449 6.185693 3.798761
v 2.597207 5.763148 4.417734
v 3.390892 5.56551 3.558098
v 3.452272 7.392223 3.352307
v 4.316323 7.197119 4.257959
v 3.397432 7.578716 4.566003
v 3.390892 5.56551 3.558098
v 3.392638 5.466238 4.540892
v 4.152403 5.747296 3.827999
v 3.397432 7.578716 4.566003
v 3.560668 7.065695 5.113504
v 2.541057 6.752557 4.857238
v 4.316323 7.197119 4.257959
v 3.560668 7.065695 5.113504
v 3.397432 7.578716 4.566003
v 2.541057 6.752557 4.857238
v 3.469219 6.179651 5.208641
v 2.597207 5.763148 4.417734
v 2.597207 5.763148 4.417734
v 3.469219 6.179651 5.208641
v 3.392638 5.466238 4.540892
v 3.392638 5.466238 4.540892
v 3.469219 6.179651 5.208641
v 4.304129 6.229013 4.691775
v 3.469219 6.179651 5.208641
v 3.560668 7.065695 5.113504
v 4.304129 6.229013 4.691775
v 4.304129 6.229013 4.691775
v 3.560668 7.065695 5.113504
v 4.316323 7.197119 4.257959
v 3.560668 7.065695 5.113504
v 3.469219 6.179651 5.208641
v 2.541057 6.752557 4.857238
v 2.344449 6.185693 3.798761
v 2.541057 6.752557 4.857238
v 2.597207 5.763148 4.417734
v 4.152403 5.747296 3.827999
v 3.392638 5.466238 4.540892
v 4.304129 6.229013 4.691775
v 4.442229 6.344398 3.82686
v 4.304129 6.229013 4.691775
v 4.316323 7.197119 4.257959
v 2.453231 7.149234 4.067545
v 3.397432 7.578716 4.566003
v 2.541057 6.752557 4.857238
v 2.597207 5.763148 4.417734
v 3.392638 5.466238 4.540892
v 3.390892 5.56551 3.558098
v 4.152403 5.747296 3.827999
v 4.304129 6.229013 4.691775
v 4.442229 6.344398 3.82686
v 4.153519 6.862902 3.371794
v 4.316323 7.197119 4.257959
v 3.452272 7.392223 3.352307
v 3.397432 7.578716 4.566003
v 2.453231 7.149234 4.067545
v 3.452272 7.392223 3.352307
v 3.452272 7.392223 3.352307
v 2.453231 7.149234 4.067545
v 2.720481 7.015363 3.366616
v 2.453231 7.149234 4.067545
v 2.541057 6.752557 4.857238
v 2.344449 6.185693 3.798761
v 3.305172 6.166472 3.045382
v 2.344449 6.185693 3.798761
v 3.390892 5.56551 3.558098
v 3.305172 6.166472 3.045382
v 3.390892 5.56551 3.558098
v 4.152403 5.747296 3.827999
v 3.305172 6.166472 3.045382
v 4.152403 5.747296 3.827999
v 4.153519 6.862902 3.371794
v 4.153519 6.862902 3.371794
v 4.152403 5.747296 3.827999
v 4.442229 6.344398 3.82686
v 2.344449 6.185693 3.798761
v 3.305172 6.166472 3.045382
v 2.720481 7.015363 3.366616
v 4.862543 6.653343 3.565177
v 4.126859 6.937065 4.385915
v 3.808638 6.817461 3.808421
v 3.503231 6.182673 3.398495
v 3.808638 6.817461 3.808421
v 3.20101 5.866047 4.143292
v 4.862543 6.653343 3.565177
v 4.844496 6.812619 4.438142
v 4.126859 6.937065 4.385915
v 4.126859 6.937065 4.385915
v 4.144968 6.40232 5.045503
v 3.470429 6.081721 4.851382
v 4.17361 4.773903 4.374642
v 4.225034 5.566566 5.200928
v 4.873366 5.210122 4.880862
v 3.470429 6.081721 4.851382
v 4.225034 5.566566 5.200928
v 3.576028 5.320145 4.693882
v 3.576028 5.320145 4.693882
v 4.225034 5.566566 5.200928
v 4.17361 4.773903 4.374642
v 4.873366 5.210122 4.880862
v 4.225034 5.566566 5.200928
v 5.106911 6.184402 4.903502
v 5.106911 6.184402 4.903502
v 4.225034 5.566566 5.200928
v 4.144968 6.40232 5.045503
v 5.106911 6.184402 4.903502
v 4.144968 6.40232 5.045503
v 4.844496 6.812619 4.438142
v 4.844496 6.812619 4.438142
v 4.144968 6.40232 5.045503
v 4.126859 6.937065 4.385915
v 4.144968 6.40232 5.045503
v 4.225034 5.566566 5.200928
v 3.470429 6.081721 4.851382
v 3.20101 5.866047 4.143292
v 3.470429 6.081721 4.851382
v 3.576028 5.320145 4.693882
v 3.20101 5.866047 4.143292
v 3.576028 5.320145 4.693882
v 3.688096 4.999735 3.71479
v 3.688096 4.999735 3.71479
v 3.576028 5.320145 4.693882
v 4.17361 4.773903 4.374642
v 4.17361 4.773903 4.374642
v 4.873366 5.210122 4.880862
v 4.956402 5.00357 3.72576
v 5.468812 5.84248 4.01422
v 4.873366 5.210122 4.880862
v 5.106911 6.184402 4.903502
v 3.808638 6.817461 3.808421
v 4.126859 6.937065 4.385915
v 3.470429 6.081721 4.851382
v 3.808638 6.817461 3.808421
v 3.470429 6.081721 4.851382
v 3.20101 5.866047 4.143292
v 3.688096 4.999735 3.71479
v 4.17361 4.773903 4.374642
v 4.956402 5.00357 3.72576
v 4.956402 5.00357 3.72576
v 4.873366 5.210122 4.880862
v 5.468812 5.84248 4.01422
v 5.468812 5.84248 4.01422
v 5.106911 6.184402 4.903502
v 4.844496 6.812619 4.438142
v 5.468812 5.84248 4.01422
v 4.844496 6.812619 4.438142
v 4.862543 6.653343 3.565177
v 3.503231 6.182673 3.398495
v 3.20101 5.866047 4.143292
v 3.688096 4.999735 3.71479
v 4.109482 5.42516 3.117443
v 3.688096 4.999735 3.71479
v 4.956402 5.00357 3.72576
v 4.109482 5.42516 3.117443
v 4.956402 5.00357 3.72576
v 4.669614 6.045964 3.043559
v 4.669614 6.045964 3.043559
v 4.956402 5.00357 3.72576
v 5.468812 5.84248 4.01422
v 4.669614 6.045964 3.043559
v 5.468812 5.84248 4.01422
v 4.862543 6.653343 3.565177
v 3.503231 6.182673 3.398495
v 3.688096 4.999735 3.71479
v 4.109482 5.42516 3.117443
v 3.503231 6.182673 3.398495
v 4.109482 5.42516 3.117443
v 4.669614 6.045964 3.043559
v 4.669614 6.045964 3.043559
v 4.862543 6.653343 3.565177
v 3.808638 6.817461 3.808421
v 4.669614 6.045964 3.043559
v 3.808638 6.817461 3.808421
v 3.503231 6.182673 3.398495
v 1.988975 5.847503 3.041592
v 3.203524 6.059615 3.335228
v 2.46323 6.720598 3.376576
v 1.988975 5.847503 3.041592
v 2.896565 5.27334 3.296212
v 3.203524 6.059615 3.335228
v 2.433631 4.91534 3.541112
v 3.037001 4.982235 4.489019
v 2.896565 5.27334 3.296212
v 1.475125 6.163352 3.558101
v 2.008702 6.941614 4.264637
v 1.411293 6.210067 4.575397
v 2.46323 6.720598 3.376576
v 2.874333 6.837869 4.427021
v 2.008702 6.941614 4.264637
v 3.203524 6.059615 3.335228
v 3.421497 5.526825 4.124939
v 3.411527 6.179314 4.525971
v 2.433631 4.91534 3.541112
v 2.241326 4.782104 4.369189
v 3.037001 4.982235 4.489019
v 2.008702 6.941614 4.264637
v 2.48787 6.200716 5.208713
v 1.411293 6.210067 4.575397
v 3.411527 6.179314 4.525971
v 2.48787 6.200716 5.208713
v 2.874333 6.837869 4.427021
v 3.037001 4.982235 4.489019
v 2.573162 5.388543 5.131169
v 3.411527 6.179314 4.525971
v 2.241326 4.782104 4.369189
v 2.573162 5.388543 5.131169
v 3.037001 4.982235 4.489019
v 1.60261 5.55899 4.865252
v 2.48787 6.200716 5.208713
v 2.573162 5.388543 5.131169
v 1.60261 5.55899 4.865252
v 2.573162 5.388543 5.131169
v 2.241326 4.782104 4.369189
v 2.573162 5.388543 5.131169
v 2.48787 6.200716 5.208713
v 3.411527 6.179314 4.525971
v 2.874333 6.837869 4.427021
v 2.48787 6.200716 5.208713
v 2.008702 6.941614 4.264637
v 2.48787 6.200716 5.208713
v 1.60261 5.55899 4.865252
v 1.411293 6.210067 4.575397
v 1.461026 5.207731 3.984578
v 1.411293 6.210067 4.575397
v 1.60261 5.55899 4.865252
v 1.461026 5.207731 3.984578
v 1.60261 5.55899 4.865252
v 2.241326 4.782104 4.369189
v 3.421497 5.526825 4.124939
v 3.037001 4.982235 4.489019
v 3.411527 6.179314 4.525971
v 1.461026 5.207731 3.984578
v 2.241326 4.782104 4.369189
v 2.433631 4.91534 3.541112
v 3.037001 4.982235 4.489019
v 3.421497 5.526825 4.124939
v 2.896565 5.27334 3.296212
v 2.896565 5.27334 3.296212
v 3.421497 5.526825 4.124939
v 3.203524 6.059615 3.335228
v 3.411527 6.179314 4.525971
v 2.874333 6.837869 4.427021
v 3.203524 6.059615 3.335228
v 3.203524 6.059615 3.335228
v 2.874333 6.837869 4.427021
v 2.46323 6.720598 3.376576
v 2.46323 6.720598 3.376576
v 2.008702 6.941614 4.264637
v 1.475125 6.163352 3.558101
v 1.411293 6.210067 4.575397
v 1.461026 5.207731 3.984578
v 1.475125 6.163352 3.558101
v 1.988975 5.847503 3.041592
v 1.461026 5.207731 3.984578
v 2.433631 4.91534 3.541112
v 1.988975 5.847503 3.041592
v 2.433631 4.91534 3.541112
v 2.896565 5.27334 3.296212
v 1.475125 6.163352 3.558101
v 1.461026 5.207731 3.984578
v 1.988975 5.847503 3.041592
v 1.988975 5.847503 3.041592
v 2.46323 6.720598 3.376576
v 1.475125 6.163352 3.558101
v 3.340617 4.958203 3.04895
v 3.72923 3.925199 3.402896
v 4.068707 4.663536 3.366617
v 3.340617 4.958203 3.04895
v 2.471825 4.330578 3.335016
v 3.72923 3.925199 3.402896
v 2.693545 5.305225 3.362887
v 2.098914 4.688938 4.252349
v 2.471825 4.330578 3.335016
v 3.870956 5.572342 3.797801
v 3.244877 5.745718 4.124939
v 2.693545 5.305225 3.362887
v 4.068707 4.663536 3.366617
v 4.370885 4.674758 4.095712
v 3.870956 5.572342 3.797801
v 2.693545 5.305225 3.362887
v 2.481215 5.403586 4.472012
v 2.098914 4.688938 4.252349
v 3.72923 3.925199 3.402896
v 3.258955 3.565956 4.482017
v 3.880969 3.788031 4.124938
v 2.471825 4.330578 3.335016
v 2.098914 4.688938 4.252349
v 2.705489 3.715903 3.861521
v 2.098914 4.688938 4.252349
v 2.902532 4.485726 5.202174
v 2.50013 4.122447 4.693882
v 2.50013 4.122447 4.693882
v 2.902532 4.485726 5.202174
v 3.258955 3.565956 4.482017
v 2.902532 4.485726 5.202174
v 3.925554 4.192168 4.863667
v 3.258955 3.565956 4.482017
v 3.925554 4.192168 4.863667
v 2.902532 4.485726 5.202174
v 4.023684 4.963222 4.914362
v 4.023684 4.963222 4.914362
v 2.902532 4.485726 5.202174
v 3.180981 5.494189 4.918938
v 3.180981 5.494189 4.918938
v 2.902532 4.485726 5.202174
v 2.481215 5.403586 4.472012
v 2.481215 5.403586 4.472012
v 2.902532 4.485726 5.202174
v 2.098914 4.688938 4.252349
v 2.098914 4.688938 4.252349
v 2.50013 4.122447 4.693882
v 2.705489 3.715903 3.861521
v 2.705489 3.715903 3.861521
v 2.50013 4.122447 4.693882
v 3.258955 3.565956 4.482017
v 3.880969 3.788031 4.124938
v 3.258955 3.565956 4.482017
v 3.925554 4.192168 4.863667
v 4.370885 4.674758 4.095712
v 3.925554 4.192168 4.863667
v 4.023684 4.963222 4.914362
v 3.870956 5.572342 3.797801
v 4.023684 4.963222 4.914362
v 3.180981 5.494189 4.918938
v 3.870956 5.572342 3.797801
v 3.180981 5.494189 4.918938
v 3.244877 5.745718 4.124939
v 2.705489 3.715903 3.861521
v 3.258955 3.565956 4.482017
v 3.72923 3.925199 3.402896
v 3.880969 3.788031 4.124938
v 3.925554 4.192168 4.863667
v 4.370885 4.674758 4.095712
v 3.880969 3.788031 4.124938
v 4.370885 4.674758 4.095712
v 3.72923 3.925199 3.402896
v 3.72923 3.925199 3.402896
v 4.370885 4.674758 4.095712
v 4.068707 4.663536 3.366617
v 4.370885 4.674758 4.095712
v 4.023684 4.963222 4.914362
v 3.870956 5.572342 3.797801
v 3.244877 5.745718 4.124939
v 3.180981 5.494189 4.918938
v 2.481215 5.403586 4.472012
v 3.244877 5.745718 4.124939
v 2.481215 5.403586 4.472012
v 2.693545 5.305225 3.362887
v 2.471825 4.330578 3.335016
v 2.705489 3.715903 3.861521
v 3.72923 3.925199 3.402896
v 4.068707 4.663536 3.366617
v 3.870956 5.572342 3.797801
v 3.340617 4.958203 3.04895
v 2.693545 5.305225 3.362887
v 2.471825 4.330578 3.335016
v 3.340617 4.958203 3.04895
v 3.340617 4.958203 3.04895
v 3.870956 5.572342 3.797801
v 2.693545 5.305225 3.362887
v 2.359601 4.877544 2.747931
v 2.444469 3.845353 2.19548
v 3.093082 4.482896 1.863058
v 3.093082 4.482896 1.863058
v 3.200201 3.383718 2.153588
v 4.06749 3.986528 2.177375
v 3.093082 4.482896 1.863058
v 2.444469 3.845353 2.19548
v 3.200201 3.383718 2.153588
v 4.06749 3.986528 2.177375
v 4.298526 4.526593 3.287802
v 3.912794 5.069284 2.60701
v 2.444469 3.845353 2.19548
v 2.898668 3.106975 3.08056
v 3.200201 3.383718 2.153588
v 4.06749 3.986528 2.177375
v 4.274096 3.862228 2.947541
v 4.298526 4.526593 3.287802
v 2.444469 3.845353 2.19548
v 2.250443 3.859636 3.380516
v 2.898668 3.106975 3.08056
v 4.298526 4.526593 3.287802
v 3.604569 4.227035 4.031243
v 3.182685 5.063932 3.676409
v 3.815629 3.417737 3.514378
v 3.604569 4.227035 4.031243
v 4.298526 4.526593 3.287802
v 2.898668 3.106975 3.08056
v 3.06907 3.65555 3.868105
v 3.815629 3.417737 3.514378
v 2.545212 4.508193 3.776926
v 3.604569 4.227035 4.031243
v 3.06907 3.65555 3.868105
v 2.545212 4.508193 3.776926
v 3.06907 3.65555 3.868105
v 2.250443 3.859636 3.380516
v 2.250443 3.859636 3.380516
v 3.06907 3.65555 3.868105
v 2.898668 3.106975 3.08056
v 3.06907 3.65555 3.868105
v 3.604569 4.227035 4.031243
v 3.815629 3.417737 3.514378
v 3.182685 5.063932 3.676409
v 3.604569 4.227035 4.031243
v 2.545212 4.508193 3.776926
v 2.898668 3.106975 3.08056
v 3.815629 3.417737 3.514378
v 3.73333 3.23736 2.672798
v 4.274096 3.862228 2.947541
v 3.815629 3.417737 3.514378
v 4.298526 4.526593 3.287802
v 3.912794 5.069284 2.60701
v 4.298526 4.526593 3.287802
v 3.182685 5.063932 3.676409
v 3.912794 5.069284 2.60701
v 3.182685 5.063932 3.676409
v 3.087318 5.268291 2.637017
v 2.359601 4.877544 2.747931
v 3.182685 5.063932 3.676409
v 2.545212 4.508193 3.776926
v 2.359601 4.877544 2.747931
v 2.545212 4.508193 3.776926
v 2.250443 3.859636 3.380516
v 3.200201 3.383718 2.153588
v 2.898668 3.106975 3.08056
v 3.73333 3.23736 2.672798
v 3.73333 3.23736 2.672798
v 3.815629 3.417737 3.514378
v 4.274096 3.862228 2.947541
v 3.73333 3.23736 2.672798
v 4.274096 3.862228 2.947541
v 4.06749 3.986528 2.177375
v 3.087318 5.268291 2.637017
v 3.182685 5.063932 3.676409
v 2.359601 4.877544 2.747931
v 2.359601 4.877544 2.747931
v 2.250443 3.859636 3.380516
v 2.444469 3.845353 2.19548
v 3.200201 3.383718 2.153588
v 3.73333 3.23736 2.672798
v 4.06749 3.986528 2.177375
v 4.06749 3.986528 2.177375
v 3.912794 5.069284 2.60701
v 3.093082 4.482896 1.863058
v 3.093082 4.482896 1.863058
v 3.912794 5.069284 2.60701
v 3.087318 5.268291 2.637017
v 3.093082 4.482896 1.863058
v 3.087318 5.268291 2.637017
v 2.359601 4.877544 2.747931
v 1.654419 5.373446 1.871551
v 2.73341 4.938074 2.184649
v 2.397806 5.934822 2.244419
v 1.654419 5.373446 1.871551
v 2.080885 4.650248 2.026977
v 2.73341 4.938074 2.184649
v 1.654419 5.373446 1.871551
v 1.238583 4.707102 2.189218
v 2.080885 4.650248 2.026977
v 2.397806 5.934822 2.244419
v 2.253063 6.264114 2.969657
v 1.325123 6.112191 2.645905
v 2.73341 4.938074 2.184649
v 2.945813 5.546563 3.289353
v 2.397806 5.934822 2.244419
v 1.898462 4.095001 2.620025
v 2.826219 4.526069 2.91495
v 2.73341 4.938074 2.184649
v 1.238583 4.707102 2.189218
v 1.244193 4.306415 3.274608
v 1.898462 4.095001 2.620025
v 0.9905031 5.507083 2.404329
v 1.325123 6.112191 2.645905
v 0.762722 5.162436 3.064693
v 2.73341 4.938074 2.184649
v 2.826219 4.526069 2.91495
v 2.945813 5.546563 3.289353
v 1.238583 4.707102 2.189218
v 0.762722 5.162436 3.064693
v 1.244193 4.306415 3.274608
v 2.945813 5.546563 3.289353
v 2.155738 5.373446 4.02353
v 1.818327 6.040937 3.703672
v 1.244193 4.306415 3.274608
v 1.729272 4.650248 3.868105
v 2.442883 4.488214 3.678803
v 0.762722 5.162436 3.064693
v 1.207633 5.500995 3.780359
v 1.244193 4.306415 3.274608
v 1.207633 5.500995 3.780359
v 2.155738 5.373446 4.02353
v 1.729272 4.650248 3.868105
v 1.207633 5.500995 3.780359
v 1.729272 4.650248 3.868105
v 1.244193 4.306415 3.274608
v 1.729272 4.650248 3.868105
v 2.155738 5.373446 4.02353
v 2.442883 4.488214 3.678803
v 2.442883 4.488214 3.678803
v 2.155738 5.373446 4.02353
v 2.945813 5.546563 3.289353
v 1.818327 6.040937 3.703672
v 2.155738 5.373446 4.02353
v 1.207633 5.500995 3.780359
v 1.898462 4.095001 2.620025
v 1.244193 4.306415 3.274608
v 2.442883 4.488214 3.678803
v 1.898462 4.095001 2.620025
v 2.442883 4.488214 3.678803
v 2.826219 4.526069 2.91495
v 2.826219 4.526069 2.91495
v 2.442883 4.488214 3.678803
v 2.945813 5.546563 3.289353
v 2.253063 6.264114 2.969657
v 2.945813 5.546563 3.289353
v 1.818327 6.040937 3.703672
v 1.325123 6.112191 2.645905
v 1.818327 6.040937 3.703672
v 1.207633 5.500995 3.780359
v 1.325123 6.112191 2.645905
v 1.207633 5.500995 3.780359
v 0.762722 5.162436 3.064693
v 2.945813 5.546563 3.289353
v 2.253063 6.264114 2.969657
v 2.397806 5.934822 2.244419
v 2.253063 6.264114 2.969657
v 1.818327 6.040937 3.703672
v 1.325123 6.112191 2.645905
v 0.9905031 5.507083 2.404329
v 0.762722 5.162436 3.064693
v 1.238583 4.707102 2.189218
v 1.238583 4.707102 2.189218
v 1.898462 4.095001 2.620025
v 2.080885 4.650248 2.026977
v 2.080885 4.650248 2.026977
v 1.898462 4.095001 2.620025
v 2.73341 4.938074 2.184649
v 0.9905031 5.507083 2.404329
v 1.238583 4.707102 2.189218
v 1.654419 5.373446 1.871551
v 2.397806 5.934822 2.244419
v 1.325123 6.112191 2.645905
v 1.654419 5.373446 1.871551
v 1.654419 5.373446 1.871551
v 1.325123 6.112191 2.645905
v 0.9905031 5.507083 2.404329
v 4.781916 5.486001 1.871551
v 4.861981 4.650248 2.026977
v 5.537972 4.942607 2.228691
v 4.781916 5.486001 1.871551
v 3.907564 4.874037 2.163362
v 4.861981 4.650248 2.026977
v 4.005496 5.662701 2.208815
v 3.770919 5.862198 2.885844
v 3.907564 4.874037 2.163362
v 4.69009 6.156956 2.380701
v 5.322266 6.066839 2.947541
v 4.690677 6.260628 3.349164
v 5.537972 4.942607 2.228691
v 5.715393 4.856926 2.947541
v 5.617223 5.680822 2.561871
v 3.907564 4.874037 2.163362
v 3.746861 4.714346 3.321742
v 4.183735 4.23174 2.637016
v 4.690677 6.260628 3.349164
v 4.510367 5.732421 3.868105
v 3.840644 5.409796 3.679871
v 4.520344 4.114787 3.218576
v 4.590433 4.896667 4.023529
v 5.238765 4.540223 3.703465
v 3.840644 5.409796 3.679871
v 4.590433 4.896667 4.023529
v 3.746861 4.714346 3.321742
v 3.746861 4.714346 3.321742
v 4.590433 4.896667 4.023529
v 4.520344 4.114787 3.218576
v 5.238765 4.540223 3.703465
v 4.590433 4.896667 4.023529
v 5.458341 5.491195 3.742483
v 5.458341 5.491195 3.742483
v 4.590433 4.896667 4.023529
v 4.510367 5.732421 3.868105
v 5.458341 5.491195 3.742483
v 4.510367 5.732421 3.868105
v 4.690677 6.260628 3.349164
v 4.510367 5.732421 3.868105
v 4.590433 4.896667 4.023529
v 3.840644 5.409796 3.679871
v 4.183735 4.23174 2.637016
v 3.746861 4.714346 3.321742
v 4.520344 4.114787 3.218576
v 4.520344 4.114787 3.218576
v 5.238765 4.540223 3.703465
v 5.18986 4.245434 2.649456
v 5.715393 4.856926 2.947541
v 5.238765 4.540223 3.703465
v 5.458341 5.491195 3.742483
v 5.715393 4.856926 2.947541
v 5.458341 5.491195 3.742483
v 5.617223 5.680822 2.561871
v 5.322266 6.066839 2.947541
v 5.458341 5.491195 3.742483
v 4.690677 6.260628 3.349164
v 3.770919 5.862198 2.885844
v 4.690677 6.260628 3.349164
v 3.840644 5.409796 3.679871
v 4.183735 4.23174 2.637016
v 4.520344 4.114787 3.218576
v 5.18986 4.245434 2.649456
v 5.18986 4.245434 2.649456
v 5.238765 4.540223 3.703465
v 5.715393 4.856926 2.947541
v 5.18986 4.245434 2.649456
v 5.715393 4.856926 2.947541
v 5.537972 4.942607 2.228691
v 5.617223 5.680822 2.561871
v 5.458341 5.491195 3.742483
v 5.322266 6.066839 2.947541
v 5.617223 5.680822 2.561871
v 5.322266 6.066839 2.947541
v 4.69009 6.156956 2.380701
v 4.690677 6.260628 3.349164
v 3.770919 5.862198 2.885844
v 4.69009 6.156956 2.380701
v 4.69009 6.156956 2.380701
v 3.770919 5.862198 2.885844
v 4.005496 5.662701 2.208815
v 3.770919 5.862198 2.885844
v 3.840644 5.409796 3.679871
v 3.746861 4.714346 3.321742
v 3.770919 5.862198 2.885844
v 3.746861 4.714346 3.321742
v 3.907564 4.874037 2.163362
v 3.907564 4.874037 2.163362
v 4.183735 4.23174 2.637016
v 4.861981 4.650248 2.026977
v 4.861981 4.650248 2.026977
v 4.183735 4.23174 2.637016
v 5.18986 4.245434 2.649456
v 4.861981 4.650248 2.026977
v 5.18986 4.245434 2.649456
v 5.537972 4.942607 2.228691
v 5.537972 4.942607 2.228691
v 5.617223 5.680822 2.561871
v 4.781916 5.486001 1.871551
v 4.781916 5.486001 1.871551
v 5.617223 5.680822 2.561871
v 4.69009 6.156956 2.380701
v 4.005496 5.662701 2.208815
v 3.907564 4.874037 2.163362
v 4.781916 5.486001 1.871551
v 4.781916 5.486001 1.871551
v 4.69009 6.156956 2.380701
v 4.005496 5.662701 2.208815
v 4.955407 6.470232 1.871552
v 4.900149 7.25374 2.189216
v 4.075609 7.11689 2.205577
v 4.955407 6.470232 1.871552
v 4.263108 5.810606 2.120595
v 4.876255 5.661893 2.219082
v 4.075609 7.11689 2.205577
v 3.669191 6.942813 3.264059
v 3.630208 6.148793 2.541179
v 4.900149 7.25374 2.189216
v 4.79631 7.551809 3.265662
v 4.075609 7.11689 2.205577
v 4.79631 7.551809 3.265662
v 4.1319 7.426827 3.237697
v 3.630208 6.148793 2.541179
v 4.278705 5.396652 2.938052
v 4.263108 5.810606 2.120595
v 4.075609 7.11689 2.205577
v 4.1319 7.426827 3.237697
v 3.669191 6.942813 3.264059
v 4.900149 7.25374 2.189216
v 5.564156 7.151134 3.097543
v 4.79631 7.551809 3.265662
v 5.565149 6.7649 2.380706
v 5.692469 6.157062 3.305891
v 5.564156 7.151134 3.097543
v 4.876255 5.661893 2.219082
v 4.278705 5.396652 2.938052
v 5.412051 5.699911 2.614164
v 4.1319 7.426827 3.237697
v 4.815101 6.810975 4.036771
v 3.669191 6.942813 3.264059
v 5.564156 7.151134 3.097543
v 4.815101 6.810975 4.036771
v 4.79631 7.551809 3.265662
v 3.798432 6.234216 3.676487
v 4.815101 6.810975 4.036771
v 4.62172 5.594392 3.698017
v 4.62172 5.594392 3.698017
v 4.815101 6.810975 4.036771
v 5.105851 6.135825 3.868105
v 4.62172 5.594392 3.698017
v 5.105851 6.135825 3.868105
v 5.692469 6.157062 3.305891
v 5.105851 6.135825 3.868105
v 4.815101 6.810975 4.036771
v 5.692469 6.157062 3.305891
v 5.692469 6.157062 3.305891
v 4.815101 6.810975 4.036771
v 5.564156 7.151134 3.097543
v 4.79631 7.551809 3.265662
v 4.815101 6.810975 4.036771
v 4.1319 7.426827 3.237697
v 4.815101 6.810975 4.036771
v 3.798432 6.234216 3.676487
v 3.669191 6.942813 3.264059
v 3.630208 6.148793 2.541179
v 3.798432 6.234216 3.676487
v 4.278705 5.396652 2.938052
v 4.278705 5.396652 2.938052
v 3.798432 6.234216 3.676487
v 4.62172 5.594392 3.698017
v 4.278705 5.396652 2.938052
v 4.62172 5.594392 3.698017
v 5.412051 5.699911 2.614164
v 5.412051 5.699911 2.614164
v 4.62172 5.594392 3.698017
v 5.692469 6.157062 3.305891
v 4.263108 5.810606 2.120595
v 4.278705 5.396652 2.938052
v 4.876255 5.661893 2.219082
v 5.412051 5.699911 2.614164
v 5.692469 6.157062 3.305891
v 5.565149 6.7649 2.380706
v 5.565149 6.7649 2.380706
v 5.564156 7.151134 3.097543
v 4.900149 7.25374 2.189216
v 3.669191 6.942813 3.264059
v 3.798432 6.234216 3.676487
v 3.630208 6.148793 2.541179
v 4.876255 5.661893 2.219082
v 5.412051 5.699911 2.614164
v 4.955407 6.470232 1.871552
v 4.955407 6.470232 1.871552
v 5.412051 5.699911 2.614164
v 5.565149 6.7649 2.380706
v 4.955407 6.470232 1.871552
v 5.565149 6.7649 2.380706
v 4.900149 7.25374 2.189216
v 3.630208 6.148793 2.541179
v 4.263108 5.810606 2.120595
v 4.075609 7.11689 2.205577
v 4.075609 7.11689 2.205577
v 4.263108 5.810606 2.120595
v 4.955407 6.470232 1.871552
v 2.660578 6.2818 2.573735
v 2.479327 5.090334 2.179501
v 3.16713 5.763071 1.863689
v 3.16713 5.763071 1.863689
v 3.359684 4.538441 2.169842
v 4.11795 5.123975 2.197843
v 3.16713 5.763071 1.863689
v 2.479327 5.090334 2.179501
v 3.359684 4.538441 2.169842
v 2.660578 6.2818 2.573735
v 2.25698 5.722457 2.947541
v 2.479327 5.090334 2.179501
v 4.11795 5.123975 2.197843
v 4.335871 5.724083 3.302629
v 4.030946 5.929137 2.378598
v 3.359684 4.538441 2.169842
v 4.191159 4.702383 2.928539
v 4.11795 5.123975 2.197843
v 2.479327 5.090334 2.179501
v 2.899885 4.311158 3.09959
v 3.359684 4.538441 2.169842
v 4.11795 5.123975 2.197843
v 4.191159 4.702383 2.928539
v 4.335871 5.724083 3.302629
v 3.359684 4.538441 2.169842
v 2.899885 4.311158 3.09959
v 4.191159 4.702383 2.928539
v 2.479327 5.090334 2.179501
v 2.282311 4.998909 3.352964
v 2.899885 4.311158 3.09959
v 3.282284 6.353671 3.51438
v 3.343662 5.725045 4.030622
v 2.601635 5.711452 3.787493
v 4.335871 5.724083 3.302629
v 3.343662 5.725045 4.030622
v 3.282284 6.353671 3.51438
v 2.899885 4.311158 3.09959
v 3.110392 4.846962 3.868105
v 3.834543 4.720174 3.682976
v 2.601635 5.711452 3.787493
v 3.343662 5.725045 4.030622
v 3.110392 4.846962 3.868105
v 2.601635 5.711452 3.787493
v 3.110392 4.846962 3.868105
v 2.282311 4.998909 3.352964
v 2.282311 4.998909 3.352964
v 3.110392 4.846962 3.868105
v 2.899885 4.311158 3.09959
v 3.110392 4.846962 3.868105
v 3.343662 5.725045 4.030622
v 3.834543 4.720174 3.682976
v 3.834543 4.720174 3.682976
v 3.343662 5.725045 4.030622
v 4.335871 5.724083 3.302629
v 2.899885 4.311158 3.09959
v 3.834543 4.720174 3.682976
v 4.191159 4.702383 2.928539
v 4.191159 4.702383 2.928539
v 3.834543 4.720174 3.682976
v 4.335871 5.724083 3.302629
v 3.654554 6.475406 2.807653
v 4.335871 5.724083 3.302629
v 3.282284 6.353671 3.51438
v 2.660578 6.2818 2.573735
v 3.282284 6.353671 3.51438
v 2.601635 5.711452 3.787493
v 2.660578 6.2818 2.573735
v 2.601635 5.711452 3.787493
v 2.25698 5.722457 2.947541
v 2.25698 5.722457 2.947541
v 2.601635 5.711452 3.787493
v 2.282311 4.998909 3.352964
v 4.335871 5.724083 3.302629
v 3.654554 6.475406 2.807653
v 4.030946 5.929137 2.378598
v 3.654554 6.475406 2.807653
v 3.282284 6.353671 3.51438
v 2.660578 6.2818 2.573735
v 2.25698 5.722457 2.947541
v 2.282311 4.998909 3.352964
v 2.479327 5.090334 2.179501
v 4.11795 5.123975 2.197843
v 4.030946 5.929137 2.378598
v 3.16713 5.763071 1.863689
v 3.16713 5.763071 1.863689
v 4.030946 5.929137 2.378598
v 3.654554 6.475406 2.807653
v 3.16713 5.763071 1.863689
v 3.654554 6.475406 2.807653
v 2.660578 6.2818 2.573735
v 1.676165 6.652346 1.871553
v 2.325823 6.223879 1.929507
v 2.013574 7.319836 2.19141
v 1.676165 6.652346 1.871553
v 1.260331 5.985999 2.189219
v 2.325823 6.223879 1.929507
v 1.260331 5.985999 2.189219
v 1.006416 5.804372 2.93511
v 1.937657 5.38175 2.602213
v 2.013574 7.319836 2.19141
v 2.684192 7.244609 2.637017
v 1.567361 7.535787 3.113375
v 1.567361 7.535787 3.113375
v 1.953025 7.24915 3.771196
v 1.084152 6.712212 3.689244
v 1.378443 5.661892 3.479654
v 2.007785 6.099365 4.023156
v 2.211296 5.594733 3.516485
v 1.084152 6.712212 3.689244
v 2.007785 6.099365 4.023156
v 1.378443 5.661892 3.479654
v 2.211296 5.594733 3.516485
v 2.007785 6.099365 4.023156
v 2.843975 6.168113 3.514378
v 2.007785 6.099365 4.023156
v 2.576233 6.998887 3.68046
v 2.843975 6.168113 3.514378
v 2.576233 6.998887 3.68046
v 2.007785 6.099365 4.023156
v 1.953025 7.24915 3.771196
v 1.953025 7.24915 3.771196
v 2.007785 6.099365 4.023156
v 1.084152 6.712212 3.689244
v 1.006416 5.804372 2.93511
v 1.084152 6.712212 3.689244
v 1.378443 5.661892 3.479654
v 1.937657 5.38175 2.602213
v 1.378443 5.661892 3.479654
v 2.211296 5.594733 3.516485
v 1.937657 5.38175 2.602213
v 2.211296 5.594733 3.516485
v 2.704449 5.708475 2.648372
v 2.704449 5.708475 2.648372
v 2.211296 5.594733 3.516485
v 2.843975 6.168113 3.514378
v 3.043082 6.472307 2.750915
v 2.843975 6.168113 3.514378
v 2.576233 6.998887 3.68046
v 2.684192 7.244609 2.637017
v 2.576233 6.998887 3.68046
v 1.953025 7.24915 3.771196
v 2.684192 7.244609 2.637017
v 1.953025 7.24915 3.771196
v 1.567361 7.535787 3.113375
v 1.567361 7.535787 3.113375
v 1.084152 6.712212 3.689244
v 0.8860884 6.825459 2.605731
v 1.006416 5.804372 2.93511
v 1.378443 5.661892 3.479654
v 1.937657 5.38175 2.602213
v 2.704449 5.708475 2.648372
v 2.843975 6.168113 3.514378
v 3.043082 6.472307 2.750915
v 3.043082 6.472307 2.750915
v 2.576233 6.998887 3.68046
v 2.684192 7.244609 2.637017
v 2.013574 7.319836 2.19141
v 1.567361 7.535787 3.113375
v 0.8860884 6.825459 2.605731
v 0.8860884 6.825459 2.605731
v 1.084152 6.712212 3.689244
v 1.006416 5.804372 2.93511
v 0.8860884 6.825459 2.605731
v 1.006416 5.804372 2.93511
v 1.260331 5.985999 2.189219
v 1.260331 5.985999 2.189219
v 1.937657 5.38175 2.602213
v 2.325823 6.223879 1.929507
v 2.325823 6.223879 1.929507
v 1.937657 5.38175 2.602213
v 2.704449 5.708475 2.648372
v 2.325823 6.223879 1.929507
v 2.704449 5.708475 2.648372
v 3.043082 6.472307 2.750915
v 2.325823 6.223879 1.929507
v 3.043082 6.472307 2.750915
v 2.684192 7.244609 2.637017
v 2.325823 6.223879 1.929507
v 2.684192 7.244609 2.637017
v 2.013574 7.319836 2.19141
v 0.8860884 6.825459 2.605731
v 1.260331 5.985999 2.189219
v 1.676165 6.652346 1.871553
v 1.676165 6.652346 1.871553
v 2.013574 7.319836 2.19141
v 0.8860884 6.825459 2.605731
v 3.578278 7.008368 1.856554
v 3.335379 8.029941 2.161937
v 2.619704 7.671247 2.189217
v 2.619704 7.671247 2.189217
v 2.240961 7.54536 3.276955
v 2.46212 6.880023 2.218593
v 4.323672 6.849085 2.582283
v 4.333872 7.51654 3.294073
v 4.087358 7.945788 2.673907
v 2.619704 7.671247 2.189217
v 2.650107 8.062521 2.947541
v 2.240961 7.54536 3.276955
v 3.335379 8.029941 2.161937
v 4.087358 7.945788 2.673907
v 3.290702 8.25631 3.349167
v 2.46212 6.880023 2.218593
v 2.352673 6.68756 3.319881
v 2.808233 6.211703 2.632661
v 3.290702 8.25631 3.349167
v 3.360092 7.675508 3.948967
v 2.240961 7.54536 3.276955
v 4.333872 7.51654 3.294073
v 3.360092 7.675508 3.948967
v 3.290702 8.25631 3.349167
v 2.240961 7.54536 3.276955
v 3.010036 6.984074 4.030152
v 2.352673 6.68756 3.319881
v 2.352673 6.68756 3.319881
v 3.010036 6.984074 4.030152
v 3.282284 6.221395 3.51438
v 3.010036 6.984074 4.030152
v 3.966877 6.71565 3.686269
v 3.282284 6.221395 3.51438
v 3.966877 6.71565 3.686269
v 3.010036 6.984074 4.030152
v 3.360092 7.675508 3.948967
v 3.966877 6.71565 3.686269
v 3.360092 7.675508 3.948967
v 4.333872 7.51654 3.294073
v 3.360092 7.675508 3.948967
v 3.010036 6.984074 4.030152
v 2.240961 7.54536 3.276955
v 2.808233 6.211703 2.632661
v 2.352673 6.68756 3.319881
v 3.282284 6.221395 3.51438
v 3.640829 6.1286 2.717909
v 3.282284 6.221395 3.51438
v 3.966877 6.71565 3.686269
v 4.323672 6.849085 2.582283
v 3.966877 6.71565 3.686269
v 4.333872 7.51654 3.294073
v 4.087358 7.945788 2.673907
v 4.333872 7.51654 3.294073
v 3.290702 8.25631 3.349167
v 2.650107 8.062521 2.947541
v 3.290702 8.25631 3.349167
v 2.240961 7.54536 3.276955
v 2.808233 6.211703 2.632661
v 3.282284 6.221395 3.51438
v 3.640829 6.1286 2.717909
v 3.640829 6.1286 2.717909
v 3.966877 6.71565 3.686269
v 4.323672 6.849085 2.582283
v 3.290702 8.25631 3.349167
v 2.650107 8.062521 2.947541
v 3.335379 8.029941 2.161937
v 3.335379 8.029941 2.161937
v 2.650107 8.062521 2.947541
v 2.619704 7.671247 2.189217
v 2.240961 7.54536 3.276955
v 2.352673 6.68756 3.319881
v 2.46212 6.880023 2.218593
v 2.46212 6.880023 2.218593
v 2.808233 6.211703 2.632661
v 3.578278 7.008368 1.856554
v 3.578278 7.008368 1.856554
v 2.808233 6.211703 2.632661
v 3.640829 6.1286 2.717909
v 3.578278 7.008368 1.856554
v 3.640829 6.1286 2.717909
v 4.323672 6.849085 2.582283
v 3.578278 7.008368 1.856554
v 4.323672 6.849085 2.582283
v 4.087358 7.945788 2.673907
v 3.578278 7.008368 1.856554
v 4.087358 7.945788 2.673907
v 3.335379 8.029941 2.161937
v 2.619704 7.671247 2.189217
v 2.46212 6.880023 2.218593
v 3.578278 7.008368 1.856554
v 3.052637 5.26983 1.241017
v 2.88477 5.5607 1.263242
v 2.791248 5.54163 2.22413
v 2.991978 5.193954 2.22413
v 2.88477 5.5607 1.263242
v 2.945416 5.888232 1.254172
v 2.860961 5.936992 2.22413
v 2.791248 5.54163 2.22413
v 3.200353 6.104412 1.232285
v 3.168498 6.195046 2.22413
v 2.860961 5.936992 2.22413
v 2.945416 5.888232 1.254172
v 3.200353 6.104412 1.232285
v 3.537271 6.105236 1.278447
v 3.569959 6.195046 2.22413
v 3.168498 6.195046 2.22413
v 3.793832 5.888689 1.224582
v 3.877496 5.936992 2.22413
v 3.569959 6.195046 2.22413
v 3.537271 6.105236 1.278447
v 3.793832 5.888689 1.224582
v 3.852804 5.555697 1.263243
v 3.947208 5.54163 2.22413
v 3.877496 5.936992 2.22413
v 3.682289 5.266867 1.241016
v 3.366688 5.15206 1.263244
v 3.369228 5.056647 2.22413
v 3.746478 5.193954 2.22413
v 3.746478 5.193954 2.22413
v 3.369228 5.056647 2.22413
v 2.991978 5.193954 2.22413
v 3.947208 5.54163 2.22413
v 2.791248 5.54163 2.22413
v 3.877496 5.936992 2.22413
v 2.860961 5.936992 2.22413
v 3.569959 6.195046 2.22413
v 3.168498 6.195046 2.22413
v 3.852804 5.555697 1.263243
v 3.682289 5.266867 1.241016
v 3.746478 5.193954 2.22413
v 3.947208 5.54163 2.22413
v 3.727541 5.22155 0.5495617
v 3.682289 5.266867 1.241016
v 3.852804 5.555697 1.263243
v 3.90533 5.552277 0.5825565
v 2.888408 5.070525 -0.0001218039
v 3.369228 4.895521 -0.0001217963
v 3.850048 5.070525 -0.0001218039
v 2.63257 5.513651 -0.0001215849
v 4.105886 5.513651 -0.0001215849
v 4.017035 6.017555 -0.0001213685
v 2.721421 6.017555 -0.0001213685
v 3.625067 6.346455 -0.0001213829
v 3.113389 6.346456 -0.0001213829
v 3.727541 5.22155 0.5495617
v 3.369228 5.102493 0.6031289
v 3.366688 5.15206 1.263244
v 3.682289 5.266867 1.241016
v 3.847031 5.923134 0.5495615
v 3.90533 5.552277 0.5825565
v 3.852804 5.555697 1.263243
v 3.793832 5.888689 1.224582
v 3.847031 5.923134 0.5495615
v 3.793832 5.888689 1.224582
v 3.537271 6.105236 1.278447
v 3.555882 6.156371 0.5681136
v 3.186043 6.156739 0.5894158
v 3.555882 6.156371 0.5681136
v 3.537271 6.105236 1.278447
v 3.200353 6.104412 1.232285
v 2.888194 5.917538 0.5495608
v 3.186043 6.156739 0.5894158
v 3.200353 6.104412 1.232285
v 2.945416 5.888232 1.254172
v 2.888194 5.917538 0.5495608
v 2.945416 5.888232 1.254172
v 2.88477 5.5607 1.263242
v 2.83178 5.548778 0.568114
v 3.010915 5.22155 0.5495589
v 2.83178 5.548778 0.568114
v 2.88477 5.5607 1.263242
v 3.052637 5.26983 1.241017
v 3.010915 5.22155 0.5495589
v 3.052637 5.26983 1.241017
v 3.366688 5.15206 1.263244
v 3.369228 5.102493 0.6031289
v 2.888408 5.070525 -0.0001218039
v 3.010915 5.22155 0.5495589
v 3.369228 5.102493 0.6031289
v 3.369228 4.895521 -0.0001217963
v 2.63257 5.513651 -0.0001215849
v 2.83178 5.548778 0.568114
v 3.010915 5.22155 0.5495589
v 2.888408 5.070525 -0.0001218039
v 2.63257 5.513651 -0.0001215849
v 2.721421 6.017555 -0.0001213685
v 2.888194 5.917538 0.5495608
v 2.83178 5.548778 0.568114
v 2.721421 6.017555 -0.0001213685
v 3.113389 6.346456 -0.0001213829
v 3.186043 6.156739 0.5894158
v 2.888194 5.917538 0.5495608
v 3.625067 6.346455 -0.0001213829
v 3.555882 6.156371 0.5681136
v 3.186043 6.156739 0.5894158
v 3.113389 6.346456 -0.0001213829
v 3.625067 6.346455 -0.0001213829
v 4.017035 6.017555 -0.0001213685
v 3.847031 5.923134 0.5495615
v 3.555882 6.156371 0.5681136
v 4.017035 6.017555 -0.0001213685
v 4.105886 5.513651 -0.0001215849
v 3.90533 5.552277 0.5825565
v 3.847031 5.923134 0.5495615
v 3.850048 5.070525 -0.0001218039
v 3.369228 4.895521 -0.0001217963
v 3.369228 5.102493 0.6031289
v 3.727541 5.22155 0.5495617
v 4.105886 5.513651 -0.0001215849
v 3.850048 5.070525 -0.0001218039
v 3.727541 5.22155 0.5495617
v 3.90533 5.552277 0.5825565
v 3.366688 5.15206 1.263244
v 3.052637 5.26983 1.241017
v 2.991978 5.193954 2.22413
v 3.369228 5.056647 2.22413
f 3 2 1
f 6 5 4
f 9 8 7
f 12 11 10
f 15 14 13
f 18 17 16
f 21 20 19
f 24 23 22
f 27 26 25
f 30 29 28
f 33 32 31
f 36 35 34
f 39 38 37
f 42 41 40
f 45 44 43
f 48 47 46
f 51 50 49
f 54 53 52
f 57 56 55
f 60 59 58
f 63 62 61
f 66 65 64
f 69 68 67
f 72 71 70
f 75 74 73
f 78 77 76
f 81 80 79
f 84 83 82
f 87 86 85
f 90 89 88
f 93 92 91
f 96 95 94
f 99 98 97
f 102 101 100
f 105 104 103
f 108 107 106
f 111 110 109
f 114 113 112
f 117 116 115
f 120 119 118
f 123 122 121
f 126 125 124
f 129 128 127
f 132 131 130
f 135 134 133
f 138 137 136
f 141 140 139
f 144 143 142
f 147 146 145
f 150 149 148
f 153 152 151
f 156 155 154
f 159 158 157
f 162 161 160
f 165 164 163
f 168 167 166
f 171 170 169
f 174 173 172
f 177 176 175
f 180 179 178
f 183 182 181
f 186 185 184
f 189 188 187
f 192 191 190
f 195 194 193
f 198 197 196
f 201 200 199
f 204 203 202
f 207 206 205
f 210 209 208
f 213 212 211
f 216 215 214
f 219 218 217
f 222 221 220
f 225 224 223
f 228 227 226
f 231 230 229
f 234 233 232
f 237 236 235
f 240 239 238
f 243 242 241
f 246 245 244
f 249 248 247
f 252 251 250
f 255 254 253
f 258 257 256
f 261 260 259
f 264 263 262
f 267 266 265
f 270 269 268
f 273 272 271
f 276 275 274
f 279 278 277
f 282 281 280
f 285 284 283
f 288 287 286
f 291 290 289
f 294 293 292
f 297 296 295
f 300 299 298
f 303 302 301
f 306 305 304
f 309 308 307
f 312 311 310
f 315 314 313
f 318 317 316
f 321 320 319
f 324 323 322
f 327 326 325
f 330 329 328
f 333 332 331
f 336 335 334
f 339 338 337
f 342 341 340
f 345 344 343
f 348 347 346
f 351 350 349
f 354 353 352
f 357 356 355
f 360 359 358
f 363 362 361
f 366 365 364
f 369 368 367
f 372 371 370
f 375 374 373
f 378 377 376
f 381 380 379
f 384 383 382
f 387 386 385
f 390 389 388
f 393 392 391
f 396 395 394
f 399 398 397
f 402 401 400
f 405 404 403
f 408 407 406
f 411 410 409
f 414 413 412
f 417 416 415
f 420 419 418
f 423 422 421
f 426 425 424
f 429 428 427
f 432 431 430
f 435 434 433
f 438 437 436
f 441 440 439
f 444 443 442
f 447 446 445
f 450 449 448
f 453 452 451
f 456 455 454
f 459 458 457
f 462 461 460
f 465 464 463
f 468 467 466
f 471 470 469
f 474 473 472
f 477 476 475
f 480 479 478
f 483 482 481
f 486 485 484
f 489 488 487
f 492 491 490
f 495 494 493
f 498 497 496
f 501 500 499
f 504 503 502
f 507 506 505
f 510 509 508
f 513 512 511
f 516 515 514
f 519 518 517
f 522 521 520
f 525 524 523
f 528 527 526
f 531 530 529
f 534 533 532
f 537 536 535
f 540 539 538
f 543 542 541
f 546 545 544
f 549 548 547
f 552 551 550
f 555 554 553
f 558 557 556
f 561 560 559
f 564 563 562
f 567 566 565
f 570 569 568
f 573 572 571
f 576 575 574
f 579 578 577
f 582 581 580
f 585 584 583
f 588 587 586
f 591 590 589
f 594 593 592
f 597 596 595
f 600 599 598
f 603 602 601
f 606 605 604
f 609 608 607
f 612 611 610
f 615 614 613
f 618 617 616
f 621 620 619
f 624 623 622
f 627 626 625
f 630 629 628
f 633 632 631
f 636 635 634
f 639 638 637
f 642 641 640
f 645 644 643
f 648 647 646
f 651 650 649
f 654 653 652
f 657 656 655
f 660 659 658
f 663 662 661
f 666 665 664
f 669 668 667
f 672 671 670
f 675 674 673
f 678 677 676
f 681 680 679
f 684 683 682
f 687 686 685
f 690 689 688
f 693 692 691
f 696 695 694
f 699 698 697
f 702 701 700
f 705 704 703
f 708 707 706
f 711 710 709
f 714 713 712
f 717 716 715
f 720 719 718
f 723 722 721
f 726 725 724
f 729 728 727
f 732 731 730
f 735 734 733
f 738 737 736
f 741 740 739
f 744 743 742
f 747 746 745
f 750 749 748
f 753 752 751
f 756 755 754
f 759 758 757
f 762 761 760
f 765 764 763
f 768 767 766
f 768 770 769
f 773 772 771
f 776 775 774
f 779 778 777
f 782 781 780
f 785 784 783
f 788 787 786
f 791 790 789
f 794 793 792
f 797 796 795
f 800 799 798
f 803 802 801
f 806 805 804
f 809 808 807
f 812 811 810
f 815 814 813
f 818 817 816
f 821 820 819
f 824 823 822
f 827 826 825
f 830 829 828
f 833 832 831
f 836 835 834
f 839 838 837
f 842 841 840
f 845 844 843
f 848 847 846
f 851 850 849
f 854 853 852
f 857 856 855
f 860 859 858
f 863 862 861
f 866 865 864
f 869 868 867
f 872 871 870
f 875 874 873
f 878 877 876
f 881 880 879
f 884 883 882
f 887 886 885
f 890 889 888
f 893 892 891
f 896 895 894
f 899 898 897
f 902 901 900
f 905 904 903
f 908 907 906
f 911 910 909
f 914 913 912
f 917 916 915
f 920 919 918
f 923 922 921
f 926 925 924
f 929 928 927
f 932 931 930
f 935 934 933
f 938 937 936
f 941 940 939
f 944 943 942
f 947 946 945
f 950 949 948
f 953 952 951
f 956 955 954
f 959 958 957
f 962 961 960
f 965 964 963
f 968 967 966
f 971 970 969
f 974 973 972
f 977 976 975
f 980 979 978
f 983 982 981
f 986 985 984
f 989 988 987
f 992 991 990
f 995 994 993
f 998 997 996
f 1001 1000 999
f 1004 1003 1002
f 1007 1006 1005
f 1010 1009 1008
f 1013 1012 1011
f 1016 1015 1014
f 1019 1018 1017
f 1022 1021 1020
f 1025 1024 1023
f 1028 1027 1026
f 1031 1030 1029
f 1034 1033 1032
f 1037 1036 1035
f 1040 1039 1038
f 1043 1042 1041
f 1046 1045 1044
f 1049 1048 1047
f 1052 1051 1050
f 1055 1054 1053
f 1058 1057 1056
f 1061 1060 1059
f 1064 1063 1062
f 1067 1066 1065
f 1070 1069 1068
f 1073 1072 1071
f 1076 1075 1074
f 1079 1078 1077
f 1082 1081 1080
f 1085 1084 1083
f 1088 1087 1086
f 1091 1090 1089
f 1094 1093 1092
f 1097 1096 1095
f 1100 1099 1098
f 1103 1102 1101
f 1106 1105 1104
f 1109 1108 1107
f 1112 1111 1110
f 1115 1114 1113
f 1118 1117 1116
f 1121 1120 1119
f 1124 1123 1122
f 1127 1126 1125
f 1130 1129 1128
f 1131 1130 1128
f 1134 1133 1132
f 1135 1134 1132
f 1138 1137 1136
f 1139 1138 1136
f 1142 1141 1140
f 1143 1142 1140
f 1146 1145 1144
f 1147 1146 1144
f 1150 1149 1148
f 1151 1150 1148
f 1154 1153 1152
f 1155 1154 1152
f 1158 1157 1156
f 1156 1159 1158
f 1159 1160 1158
f 1159 1161 1160
f 1161 1162 1160
f 1161 1163 1162
f 1163 1164 1162
f 1167 1166 1165
f 1168 1167 1165
f 1171 1170 1169
f 1172 1171 1169
f 1175 1174 1173
f 1173 1176 1175
f 1176 1177 1175
f 1176 1178 1177
f 1176 1179 1178
f 1179 1180 1178
f 1179 1181 1180
f 1184 1183 1182
f 1185 1184 1182
f 1188 1187 1186
f 1189 1188 1186
f 1192 1191 1190
f 1193 1192 1190
f 1196 1195 1194
f 1197 1196 1194
f 1200 1199 1198
f 1201 1200 1198
f 1204 1203 1202
f 1205 1204 1202
f 1208 1207 1206
f 1209 1208 1206
f 1212 1211 1210
f 1213 1212 1210
f 1216 1215 1214
f 1217 1216 1214
f 1220 1219 1218
f 1221 1220 1218
f 1224 1223 1222
f 1225 1224 1222
f 1228 1227 1226
f 1229 1228 1226
f 1232 1231 1230
f 1233 1232 1230
f 1236 1235 1234
f 1237 1236 1234
f 1240 1239 1238
f 1241 1240 1238
f 1244 1243 1242
f 1245 1244 1242
f 1248 1247 1246
f 1249 1248 1246
f 1252 1251 1250
f 1253 1252 1250
