# Unity to PyBullet Batch Export
v -2.247935 -2.068192 0.523789
v -3.056187 -2.417395 1.003116
v -3.637511 -1.414467 0.6779651
v -2.735578 -3.317682 0.5237902
v -3.056187 -2.417395 1.003116
v -2.247935 -2.068192 0.523789
v -4.731199 -2.650429 0.6779632
v -3.056187 -2.417395 1.003116
v -3.897427 -3.32301 0.700735
v -3.897427 -3.32301 0.700735
v -3.056187 -2.417395 1.003116
v -2.735578 -3.317682 0.5237902
v -3.637511 -1.414467 0.6779651
v -3.056187 -2.417395 1.003116
v -4.731199 -2.650429 0.6779632
v -4.731199 -2.650429 0.6779632
v -4.587468 -1.79198 0.5257363
v -4.987932 -2.803919 -7.262535E-08
v -4.731199 -2.650429 0.6779632
v -4.434508 -3.429342 -1.644965E-07
v -4.434508 -3.429342 -1.644965E-07
v -4.731199 -2.650429 0.6779632
v -3.897427 -3.32301 0.700735
v -3.539052 -3.668231 -2.13659E-07
v -3.897427 -3.32301 0.700735
v -2.735578 -3.317682 0.5237902
v -3.539052 -3.668231 -2.13659E-07
v -2.735578 -3.317682 0.5237902
v -2.643596 -3.429342 -1.644965E-07
v -2.090173 -2.803919 -7.262535E-08
v -2.735578 -3.317682 0.5237902
v -2.247935 -2.068192 0.523789
v -2.090173 -2.803919 -7.262535E-08
v -2.247935 -2.068192 0.523789
v -2.090173 -2.03087 7.239756E-08
v -2.643596 -1.405447 1.642687E-07
v -2.247935 -2.068192 0.523789
v -3.637511 -1.414467 0.6779651
v -2.643596 -1.405447 1.642687E-07
v -3.637511 -1.414467 0.6779651
v -3.539052 -1.166558 2.134312E-07
v -4.434508 -1.405447 1.642687E-07
v -3.637511 -1.414467 0.6779651
v -4.587468 -1.79198 0.5257363
v -4.434508 -1.405447 1.642687E-07
v -4.587468 -1.79198 0.5257363
v -4.987932 -2.03087 7.239756E-08
v -4.987932 -2.03087 7.239756E-08
v -4.587468 -1.79198 0.5257363
v -4.731199 -2.650429 0.6779632
v -4.434508 -3.429342 -1.644965E-07
v -3.897427 -3.32301 0.700735
v -3.539052 -3.668231 -2.13659E-07
v -2.643596 -3.429342 -1.644965E-07
v -2.735578 -3.317682 0.5237902
v -2.090173 -2.803919 -7.262535E-08
v -2.090173 -2.03087 7.239756E-08
v -2.247935 -2.068192 0.523789
v -2.643596 -1.405447 1.642687E-07
v -3.539052 -1.166558 2.134312E-07
v -3.637511 -1.414467 0.6779651
v -4.434508 -1.405447 1.642687E-07
v -4.987932 -2.03087 7.239756E-08
v -4.731199 -2.650429 0.6779632
v -4.987932 -2.803919 -7.262535E-08
v -4.434508 -3.429342 -1.644965E-07
v -3.539052 -3.668231 -2.13659E-07
v -2.643596 -3.429342 -1.644965E-07
v -4.987932 -2.803919 -7.262535E-08
v -2.090173 -2.803919 -7.262535E-08
v -4.987932 -2.03087 7.239756E-08
v -2.090173 -2.03087 7.239756E-08
v -4.434508 -1.405447 1.642687E-07
v -2.643596 -1.405447 1.642687E-07
v -3.539052 -1.166558 2.134312E-07
f 3 2 1
f 6 5 4
f 9 8 7
f 12 11 10
f 15 14 13
f 17 16 13
f 20 19 18
f 23 22 21
f 26 25 24
f 29 28 27
f 32 31 30
f 35 34 33
f 38 37 36
f 41 40 39
f 44 43 42
f 47 46 45
f 50 49 48
f 53 52 51
f 56 55 54
f 59 58 57
f 62 61 60
f 65 64 63
f 68 67 66
f 66 69 68
f 69 70 68
f 69 71 70
f 71 72 70
f 71 73 72
f 73 74 72
f 73 75 74
