# Unity to PyBullet Batch Export
v 4.740001 -5.305671 6.348714
v 4.137533 -4.957836 6.176769
v 4.692922 -4.637182 7.348714
v 4.740001 -4.664363 7.348714
v 4.137533 -4.957836 6.176769
v 4.137533 -4.262166 6.176769
v 4.692922 -4.58282 7.348714
v 4.692922 -4.637182 7.348714
v 4.137533 -4.262166 6.176769
v 4.740001 -3.914331 6.348713
v 4.740001 -4.555639 7.348714
v 4.692922 -4.58282 7.348714
v 4.740001 -3.914331 6.348713
v 5.342469 -4.262166 6.176769
v 4.78708 -4.58282 7.348714
v 4.740001 -4.555639 7.348714
v 4.78708 -4.637182 7.348714
v 4.740001 -4.664363 7.348714
v 4.692922 -4.637182 7.348714
v 4.692922 -4.58282 7.348714
v 4.78708 -4.58282 7.348714
v 4.740001 -4.555639 7.348714
v 5.342469 -4.957836 6.176769
v 4.740001 -5.305671 6.348714
v 4.740001 -4.664363 7.348714
v 4.78708 -4.637182 7.348714
v 5.342469 -4.262166 6.176769
v 5.342469 -4.957836 6.176769
v 4.78708 -4.637182 7.348714
v 4.78708 -4.58282 7.348714
v 3.554089 -5.294687 1.348713
v 4.740001 -5.979373 1.348713
v 5.925913 -5.294687 1.348713
v 3.554089 -3.925313 1.348714
v 5.925913 -3.925313 1.348714
v 4.740001 -3.240627 1.348714
v 6.435332 -3.6312 1.180003
v 6.435332 -5.5888 1.180003
v 5.768018 -5.203526 2.348713
v 5.768018 -4.016475 2.348714
v 6.222556 -3.754047 2.176769
v 6.222556 -5.465954 2.176769
v 5.610122 -5.112365 3.348714
v 5.610122 -4.107636 3.348714
v 5.98419 -3.891668 3.176769
v 5.98419 -5.328333 3.176769
v 5.452226 -5.021204 4.348714
v 5.452226 -4.198797 4.348714
v 5.770902 -4.01481 4.176769
v 5.770902 -5.205192 4.176769
v 5.294331 -4.930043 5.348713
v 5.294331 -4.289958 5.348713
v 5.550432 -4.142098 5.176769
v 5.550432 -5.077904 5.176769
v 5.136435 -4.838882 6.348713
v 5.136435 -4.38112 6.348713
v 6.435332 -5.5888 1.180003
v 4.740001 -6.5676 1.342244
v 4.740001 -5.797051 2.348713
v 5.768018 -5.203526 2.348713
v 6.222556 -5.465954 2.176769
v 4.740001 -6.321907 2.348713
v 4.740001 -5.61473 3.348713
v 5.610122 -5.112365 3.348714
v 5.98419 -5.328333 3.176769
v 4.740001 -6.046666 3.348714
v 4.740001 -5.432408 4.348713
v 5.452226 -5.021204 4.348714
v 5.770902 -5.205192 4.176769
v 4.740001 -5.800383 4.348713
v 4.740001 -5.250086 5.348713
v 5.294331 -4.930043 5.348713
v 5.550432 -5.077904 5.176769
v 4.740001 -5.545806 5.348714
v 4.740001 -5.067764 6.348714
v 5.136435 -4.838882 6.348713
v 4.740001 -2.6524 1.342245
v 6.435332 -3.6312 1.180003
v 5.768018 -4.016475 2.348714
v 4.740001 -3.422949 2.348714
v 4.740001 -2.898093 2.348714
v 6.222556 -3.754047 2.176769
v 5.610122 -4.107636 3.348714
v 4.740001 -3.605271 3.348714
v 4.740001 -3.173335 3.348714
v 5.98419 -3.891668 3.176769
v 5.452226 -4.198797 4.348714
v 4.740001 -3.787594 4.348714
v 4.740001 -3.419619 4.348714
v 5.770902 -4.01481 4.176769
v 5.294331 -4.289958 5.348713
v 4.740001 -3.969916 5.348713
v 4.740001 -3.674195 5.348713
v 5.550432 -4.142098 5.176769
v 5.136435 -4.38112 6.348713
v 4.740001 -4.152238 6.348713
v 3.04467 -3.6312 1.180003
v 4.740001 -2.6524 1.342245
v 4.740001 -3.422949 2.348714
v 3.711984 -4.016475 2.348714
v 3.257446 -3.754047 2.176769
v 4.740001 -2.898093 2.348714
v 4.740001 -3.605271 3.348714
v 3.86988 -4.107636 3.348714
v 3.495812 -3.891668 3.176769
v 4.740001 -3.173335 3.348714
v 4.740001 -3.787594 4.348714
v 4.027775 -4.198797 4.348714
v 3.7091 -4.01481 4.176769
v 4.740001 -3.419619 4.348714
v 4.740001 -3.969916 5.348713
v 4.185671 -4.289958 5.348713
v 3.929569 -4.142098 5.176769
v 4.740001 -3.674195 5.348713
v 4.740001 -4.152238 6.348713
v 4.343567 -4.38112 6.348713
v 3.044669 -5.5888 1.180003
v 3.04467 -3.6312 1.180003
v 3.711984 -4.016475 2.348714
v 3.711984 -5.203526 2.348713
v 3.257446 -5.465954 2.176769
v 3.257446 -3.754047 2.176769
v 3.86988 -4.107636 3.348714
v 3.86988 -5.112365 3.348714
v 3.495812 -5.328333 3.176769
v 3.495812 -3.891668 3.176769
v 4.027775 -4.198797 4.348714
v 4.027775 -5.021204 4.348714
v 3.7091 -5.205192 4.176769
v 3.7091 -4.01481 4.176769
v 4.185671 -4.289958 5.348713
v 4.185671 -4.930043 5.348713
v 3.929569 -5.077904 5.176769
v 3.929569 -4.142098 5.176769
v 4.343567 -4.38112 6.348713
v 4.343567 -4.838882 6.348713
v 4.740001 -6.5676 1.342244
v 3.044669 -5.5888 1.180003
v 3.711984 -5.203526 2.348713
v 4.740001 -5.797051 2.348713
v 4.740001 -6.321907 2.348713
v 3.257446 -5.465954 2.176769
v 3.86988 -5.112365 3.348714
v 4.740001 -5.61473 3.348713
v 4.740001 -6.046666 3.348714
v 3.495812 -5.328333 3.176769
v 4.027775 -5.021204 4.348714
v 4.740001 -5.432408 4.348713
v 4.740001 -5.800383 4.348713
v 3.7091 -5.205192 4.176769
v 4.185671 -4.930043 5.348713
v 4.740001 -5.250086 5.348713
v 4.740001 -5.545806 5.348714
v 3.929569 -5.077904 5.176769
v 4.343567 -4.838882 6.348713
v 4.740001 -5.067764 6.348714
v 5.136435 -4.38112 6.348713
v 5.136435 -4.838882 6.348713
v 5.342469 -4.957836 6.176769
v 5.342469 -4.262166 6.176769
v 5.136435 -4.838882 6.348713
v 4.740001 -5.067764 6.348714
v 4.740001 -5.305671 6.348714
v 5.342469 -4.957836 6.176769
v 4.740001 -4.152238 6.348713
v 5.136435 -4.38112 6.348713
v 5.342469 -4.262166 6.176769
v 4.740001 -3.914331 6.348713
v 4.343567 -4.38112 6.348713
v 4.740001 -4.152238 6.348713
v 4.740001 -3.914331 6.348713
v 4.137533 -4.262166 6.176769
v 4.343567 -4.838882 6.348713
v 4.343567 -4.38112 6.348713
v 4.137533 -4.262166 6.176769
v 4.137533 -4.957836 6.176769
v 4.740001 -5.067764 6.348714
v 4.343567 -4.838882 6.348713
v 4.137533 -4.957836 6.176769
v 4.740001 -5.305671 6.348714
v 4.740001 -5.250086 5.348713
v 4.185671 -4.930043 5.348713
v 3.929569 -5.077904 5.176769
v 4.740001 -5.545806 5.348714
v 4.185671 -4.930043 5.348713
v 4.185671 -4.289958 5.348713
v 3.929569 -4.142098 5.176769
v 3.929569 -5.077904 5.176769
v 4.185671 -4.289958 5.348713
v 4.740001 -3.969916 5.348713
v 4.740001 -3.674195 5.348713
v 3.929569 -4.142098 5.176769
v 4.740001 -3.969916 5.348713
v 5.294331 -4.289958 5.348713
v 5.550432 -4.142098 5.176769
v 4.740001 -3.674195 5.348713
v 5.294331 -4.930043 5.348713
v 4.740001 -5.250086 5.348713
v 4.740001 -5.545806 5.348714
v 5.550432 -5.077904 5.176769
v 5.294331 -4.289958 5.348713
v 5.294331 -4.930043 5.348713
v 5.550432 -5.077904 5.176769
v 5.550432 -4.142098 5.176769
v 4.740001 -5.432408 4.348713
v 4.027775 -5.021204 4.348714
v 3.7091 -5.205192 4.176769
v 4.740001 -5.800383 4.348713
v 4.027775 -5.021204 4.348714
v 4.027775 -4.198797 4.348714
v 3.7091 -4.01481 4.176769
v 3.7091 -5.205192 4.176769
v 4.027775 -4.198797 4.348714
v 4.740001 -3.787594 4.348714
v 4.740001 -3.419619 4.348714
v 3.7091 -4.01481 4.176769
v 4.740001 -3.787594 4.348714
v 5.452226 -4.198797 4.348714
v 5.770902 -4.01481 4.176769
v 4.740001 -3.419619 4.348714
v 5.452226 -5.021204 4.348714
v 4.740001 -5.432408 4.348713
v 4.740001 -5.800383 4.348713
v 5.770902 -5.205192 4.176769
v 5.452226 -4.198797 4.348714
v 5.452226 -5.021204 4.348714
v 5.770902 -5.205192 4.176769
v 5.770902 -4.01481 4.176769
v 4.740001 -5.61473 3.348713
v 3.86988 -5.112365 3.348714
v 3.495812 -5.328333 3.176769
v 4.740001 -6.046666 3.348714
v 3.86988 -5.112365 3.348714
v 3.86988 -4.107636 3.348714
v 3.495812 -3.891668 3.176769
v 3.495812 -5.328333 3.176769
v 3.86988 -4.107636 3.348714
v 4.740001 -3.605271 3.348714
v 4.740001 -3.173335 3.348714
v 3.495812 -3.891668 3.176769
v 4.740001 -3.605271 3.348714
v 5.610122 -4.107636 3.348714
v 5.98419 -3.891668 3.176769
v 4.740001 -3.173335 3.348714
v 5.610122 -5.112365 3.348714
v 4.740001 -5.61473 3.348713
v 4.740001 -6.046666 3.348714
v 5.98419 -5.328333 3.176769
v 5.610122 -4.107636 3.348714
v 5.610122 -5.112365 3.348714
v 5.98419 -5.328333 3.176769
v 5.98419 -3.891668 3.176769
v 4.740001 -5.797051 2.348713
v 3.711984 -5.203526 2.348713
v 3.257446 -5.465954 2.176769
v 4.740001 -6.321907 2.348713
v 3.711984 -5.203526 2.348713
v 3.711984 -4.016475 2.348714
v 3.257446 -3.754047 2.176769
v 3.257446 -5.465954 2.176769
v 3.711984 -4.016475 2.348714
v 4.740001 -3.422949 2.348714
v 4.740001 -2.898093 2.348714
v 3.257446 -3.754047 2.176769
v 4.740001 -3.422949 2.348714
v 5.768018 -4.016475 2.348714
v 6.222556 -3.754047 2.176769
v 4.740001 -2.898093 2.348714
v 5.768018 -5.203526 2.348713
v 4.740001 -5.797051 2.348713
v 4.740001 -6.321907 2.348713
v 6.222556 -5.465954 2.176769
v 5.768018 -4.016475 2.348714
v 5.768018 -5.203526 2.348713
v 6.222556 -5.465954 2.176769
v 6.222556 -3.754047 2.176769
v 4.740001 -5.979373 1.348713
v 3.554089 -5.294687 1.348713
v 3.044669 -5.5888 1.180003
v 4.740001 -6.5676 1.342244
v 3.554089 -5.294687 1.348713
v 3.554089 -3.925313 1.348714
v 3.04467 -3.6312 1.180003
v 3.044669 -5.5888 1.180003
v 3.554089 -3.925313 1.348714
v 4.740001 -3.240627 1.348714
v 4.740001 -2.6524 1.342245
v 3.04467 -3.6312 1.180003
v 4.740001 -3.240627 1.348714
v 5.925913 -3.925313 1.348714
v 6.435332 -3.6312 1.180003
v 4.740001 -2.6524 1.342245
v 5.925913 -5.294687 1.348713
v 4.740001 -5.979373 1.348713
v 4.740001 -6.5676 1.342244
v 6.435332 -5.5888 1.180003
v 5.925913 -3.925313 1.348714
v 5.925913 -5.294687 1.348713
v 6.435332 -5.5888 1.180003
v 6.435332 -3.6312 1.180003
v 4.739999 -5.000013 0.7130761
v 4.402239 -4.805007 0.7130761
v 4.402239 -4.805007 1.426112
v 4.739999 -5.000013 1.426112
v 4.402239 -4.805007 0.7130761
v 4.402239 -4.414995 0.7130761
v 4.402239 -4.414995 1.426112
v 4.402239 -4.805007 1.426112
v 4.402239 -4.414995 0.7130761
v 4.739999 -4.219988 0.7130761
v 4.739999 -4.219989 1.426112
v 4.402239 -4.414995 1.426112
v 4.739999 -4.219988 0.7130761
v 5.07776 -4.414995 0.7130761
v 5.07776 -4.414995 1.426112
v 4.739999 -4.219989 1.426112
v 5.07776 -4.805007 1.426112
v 4.739999 -5.000013 1.426112
v 4.402239 -4.805007 1.426112
v 4.402239 -4.414995 1.426112
v 5.07776 -4.414995 1.426112
v 4.739999 -4.219989 1.426112
v 5.07776 -4.805007 0.7130761
v 4.739999 -5.000013 0.7130761
v 4.739999 -5.000013 1.426112
v 5.07776 -4.805007 1.426112
v 5.07776 -4.414995 0.7130761
v 5.07776 -4.805007 0.7130761
v 5.07776 -4.805007 1.426112
v 5.07776 -4.414995 1.426112
v 4.316823 -4.854321 4.030342E-05
v 4.739999 -5.098643 4.03141E-05
v 5.163176 -4.854321 4.030342E-05
v 4.316823 -4.365679 4.052048E-05
v 5.163176 -4.36568 4.052048E-05
v 4.739999 -4.121358 4.05098E-05
v 5.163176 -4.36568 4.052048E-05
v 5.163176 -4.854321 4.030342E-05
v 5.07776 -4.805007 0.7130761
v 5.07776 -4.414995 0.7130761
v 5.163176 -4.854321 4.030342E-05
v 4.739999 -5.098643 4.03141E-05
v 4.739999 -5.000013 0.7130761
v 5.07776 -4.805007 0.7130761
v 4.739999 -4.121358 4.05098E-05
v 5.163176 -4.36568 4.052048E-05
v 5.07776 -4.414995 0.7130761
v 4.739999 -4.219988 0.7130761
v 4.316823 -4.365679 4.052048E-05
v 4.739999 -4.121358 4.05098E-05
v 4.739999 -4.219988 0.7130761
v 4.402239 -4.414995 0.7130761
v 4.316823 -4.854321 4.030342E-05
v 4.316823 -4.365679 4.052048E-05
v 4.402239 -4.414995 0.7130761
v 4.402239 -4.805007 0.7130761
v 4.739999 -5.098643 4.03141E-05
v 4.316823 -4.854321 4.030342E-05
v 4.402239 -4.805007 0.7130761
v 4.739999 -5.000013 0.7130761
f 3 2 1
f 4 3 1
f 7 6 5
f 8 7 5
f 11 10 9
f 12 11 9
f 15 14 13
f 16 15 13
f 19 18 17
f 17 20 19
f 17 21 20
f 21 22 20
f 25 24 23
f 26 25 23
f 29 28 27
f 30 29 27
f 33 32 31
f 31 34 33
f 34 35 33
f 34 36 35
f 39 38 37
f 40 39 37
f 43 42 41
f 44 43 41
f 47 46 45
f 48 47 45
f 51 50 49
f 52 51 49
f 55 54 53
f 56 55 53
f 59 58 57
f 60 59 57
f 63 62 61
f 64 63 61
f 67 66 65
f 68 67 65
f 71 70 69
f 72 71 69
f 75 74 73
f 76 75 73
f 79 78 77
f 80 79 77
f 83 82 81
f 84 83 81
f 87 86 85
f 88 87 85
f 91 90 89
f 92 91 89
f 95 94 93
f 96 95 93
f 99 98 97
f 100 99 97
f 103 102 101
f 104 103 101
f 107 106 105
f 108 107 105
f 111 110 109
f 112 111 109
f 115 114 113
f 116 115 113
f 119 118 117
f 120 119 117
f 123 122 121
f 124 123 121
f 127 126 125
f 128 127 125
f 131 130 129
f 132 131 129
f 135 134 133
f 136 135 133
f 139 138 137
f 140 139 137
f 143 142 141
f 144 143 141
f 147 146 145
f 148 147 145
f 151 150 149
f 152 151 149
f 155 154 153
f 156 155 153
f 159 158 157
f 160 159 157
f 163 162 161
f 164 163 161
f 167 166 165
f 168 167 165
f 171 170 169
f 172 171 169
f 175 174 173
f 176 175 173
f 179 178 177
f 180 179 177
f 183 182 181
f 184 183 181
f 187 186 185
f 188 187 185
f 191 190 189
f 192 191 189
f 195 194 193
f 196 195 193
f 199 198 197
f 200 199 197
f 203 202 201
f 204 203 201
f 207 206 205
f 208 207 205
f 211 210 209
f 212 211 209
f 215 214 213
f 216 215 213
f 219 218 217
f 220 219 217
f 223 222 221
f 224 223 221
f 227 226 225
f 228 227 225
f 231 230 229
f 232 231 229
f 235 234 233
f 236 235 233
f 239 238 237
f 240 239 237
f 243 242 241
f 244 243 241
f 247 246 245
f 248 247 245
f 251 250 249
f 252 251 249
f 255 254 253
f 256 255 253
f 259 258 257
f 260 259 257
f 263 262 261
f 264 263 261
f 267 266 265
f 268 267 265
f 271 270 269
f 272 271 269
f 275 274 273
f 276 275 273
f 279 278 277
f 280 279 277
f 283 282 281
f 284 283 281
f 287 286 285
f 288 287 285
f 291 290 289
f 292 291 289
f 295 294 293
f 296 295 293
f 299 298 297
f 300 299 297
f 303 302 301
f 304 303 301
f 307 306 305
f 308 307 305
f 311 310 309
f 312 311 309
f 315 314 313
f 316 315 313
f 319 318 317
f 317 320 319
f 317 321 320
f 321 322 320
f 325 324 323
f 326 325 323
f 329 328 327
f 330 329 327
f 333 332 331
f 331 334 333
f 334 335 333
f 334 336 335
f 339 338 337
f 340 339 337
f 343 342 341
f 344 343 341
f 347 346 345
f 348 347 345
f 351 350 349
f 352 351 349
f 355 354 353
f 356 355 353
f 359 358 357
f 360 359 357
