# Unity to PyBullet Batch Export
v 4.086215 0.2265177 0.2449419
v 3.708248 0.06321834 0.469092
v 3.4364 0.5322223 0.31704
v 3.858176 -0.3577874 0.2449425
v 3.708248 0.06321834 0.469092
v 4.086215 0.2265177 0.2449419
v 2.924954 -0.04575675 0.3170391
v 3.708248 0.06321834 0.469092
v 3.314855 -0.3602788 0.327688
v 3.314855 -0.3602788 0.327688
v 3.708248 0.06321834 0.469092
v 3.858176 -0.3577874 0.2449425
v 3.4364 0.5322223 0.31704
v 3.708248 0.06321834 0.469092
v 2.924954 -0.04575675 0.3170391
v 2.924954 -0.04575675 0.3170391
v 2.992167 0.3556839 0.2458526
v 2.804897 -0.1175337 -3.685582E-08
v 2.924954 -0.04575675 0.3170391
v 3.063697 -0.4100033 -8.367621E-08
v 3.063697 -0.4100033 -8.367621E-08
v 2.924954 -0.04575675 0.3170391
v 3.314855 -0.3602788 0.327688
v 3.482443 -0.5217159 -9.369425E-08
v 3.314855 -0.3602788 0.327688
v 3.858176 -0.3577874 0.2449425
v 3.482443 -0.5217159 -9.369425E-08
v 3.858176 -0.3577874 0.2449425
v 3.90119 -0.4100033 -8.367621E-08
v 4.159989 -0.1175337 -3.685582E-08
v 3.858176 -0.3577874 0.2449425
v 4.086215 0.2265177 0.2449419
v 4.159989 -0.1175337 -3.685582E-08
v 4.086215 0.2265177 0.2449419
v 4.159989 0.2439706 3.67493E-08
v 3.90119 0.5364402 8.356969E-08
v 4.086215 0.2265177 0.2449419
v 3.4364 0.5322223 0.31704
v 3.90119 0.5364402 8.356969E-08
v 3.4364 0.5322223 0.31704
v 3.482443 0.6481529 9.358773E-08
v 3.063697 0.5364402 8.356969E-08
v 3.4364 0.5322223 0.31704
v 2.992167 0.3556839 0.2458526
v 3.063697 0.5364402 8.356969E-08
v 2.992167 0.3556839 0.2458526
v 2.804897 0.2439706 3.67493E-08
v 2.804897 0.2439706 3.67493E-08
v 2.992167 0.3556839 0.2458526
v 2.924954 -0.04575675 0.3170391
v 3.063697 -0.4100033 -8.367621E-08
v 3.314855 -0.3602788 0.327688
v 3.482443 -0.5217159 -9.369425E-08
v 3.90119 -0.4100033 -8.367621E-08
v 3.858176 -0.3577874 0.2449425
v 4.159989 -0.1175337 -3.685582E-08
v 4.159989 0.2439706 3.67493E-08
v 4.086215 0.2265177 0.2449419
v 3.90119 0.5364402 8.356969E-08
v 3.482443 0.6481529 9.358773E-08
v 3.4364 0.5322223 0.31704
v 3.063697 0.5364402 8.356969E-08
v 2.804897 0.2439706 3.67493E-08
v 2.924954 -0.04575675 0.3170391
v 2.804897 -0.1175337 -3.685582E-08
v 3.063697 -0.4100033 -8.367621E-08
v 3.482443 -0.5217159 -9.369425E-08
v 3.90119 -0.4100033 -8.367621E-08
v 2.804897 -0.1175337 -3.685582E-08
v 4.159989 -0.1175337 -3.685582E-08
v 2.804897 0.2439706 3.67493E-08
v 4.159989 0.2439706 3.67493E-08
v 3.063697 0.5364402 8.356969E-08
v 3.90119 0.5364402 8.356969E-08
v 3.482443 0.6481529 9.358773E-08
f 3 2 1
f 6 5 4
f 9 8 7
f 12 11 10
f 15 14 13
f 17 16 13
f 20 19 18
f 23 22 21
f 26 25 24
f 29 28 27
f 32 31 30
f 35 34 33
f 38 37 36
f 41 40 39
f 44 43 42
f 47 46 45
f 50 49 48
f 53 52 51
f 56 55 54
f 59 58 57
f 62 61 60
f 65 64 63
f 68 67 66
f 66 69 68
f 69 70 68
f 69 71 70
f 71 72 70
f 71 73 72
f 73 74 72
f 73 75 74
